<?xml version="1.0" standalone="no"?><!DOCTYPE svg PUBLIC "-//W3C//DTD SVG 1.1//EN" "http://www.w3.org/Graphics/SVG/1.1/DTD/svg11.dtd"><svg height="1061" node-id="1" sillyvg="true" template-height="1061" template-width="1024" version="1.1" viewBox="0 0 1024 1061" width="1024" xmlns="http://www.w3.org/2000/svg" xmlns:xlink="http://www.w3.org/1999/xlink"><defs node-id="143"><clipPath id="master_svg0_2_1588" node-id="3"><path d="M 0.00 0.00 L 1024.00 0.00 L 1024.00 1061.30 L 0.00 1061.30 Z" fill="#000000" fill-rule="nonzero" node-id="146" stroke="none" target-height="1061.3" target-width="1024" target-x="0" target-y="0"></path></clipPath></defs><g clip-path="url(#master_svg0_2_1588)" id="sillyvg_g_0" node-id="150"><path d="M -109.00 464.83 L 1133.00 464.83 L 1133.00 590.88 L -109.00 590.88 L -109.00 464.83 Z M 412.54 480.47 L 402.72 481.15 L 394.11 481.97 L 386.83 482.89 L 383.80 483.40 L 378.70 484.47 L 376.16 485.17 L 374.22 485.88 L 372.88 486.62 L 372.15 487.36 L 371.91 488.09 L 372.27 488.84 L 373.12 489.58 L 376.28 491.03 L 367.91 491.53 L 365.00 491.66 L 363.66 491.67 L 362.45 491.63 L 360.27 491.48 L 355.05 491.02 L 345.23 490.01 L 338.56 489.20 L 332.25 488.37 L 315.63 486.02 L 305.32 484.79 L 295.86 483.91 L 290.89 483.54 L 280.22 482.88 L 274.52 482.61 L 268.57 482.39 L 262.51 482.21 L 257.78 482.17 L 248.20 482.17 L 243.47 482.24 L 240.55 482.33 L 234.98 482.64 L 231.22 482.97 L 227.82 483.33 L 225.03 483.73 L 222.73 484.17 L 219.09 485.10 L 217.27 485.83 L 216.18 486.55 L 215.81 487.35 L 216.18 488.14 L 216.90 488.94 L 218.36 489.73 L 220.30 490.52 L 222.73 491.28 L 225.64 492.03 L 229.03 492.75 L 232.67 493.38 L 236.55 493.97 L 240.92 494.54 L 245.77 495.09 L 250.86 495.60 L 256.32 496.08 L 262.14 496.50 L 268.21 496.89 L 274.64 497.25 L 281.19 497.54 L 287.98 497.79 L 295.13 497.98 L 281.07 499.89 L 269.18 501.78 L 263.84 502.75 L 244.07 506.59 L 238.98 507.42 L 233.16 508.20 L 213.14 510.52 L 205.38 511.66 L 201.86 512.32 L 198.95 513.01 L 196.53 513.74 L 194.59 514.47 L 193.37 515.21 L 192.65 515.96 L 192.16 517.12 L 188.28 518.73 L 187.92 519.13 L 187.67 520.79 L 189.13 521.90 L 192.65 523.12 L 195.31 523.77 L 201.98 525.03 L 210.23 526.21 L 217.02 527.04 L 224.30 527.84 L 215.45 527.69 L 183.19 526.99 L 177.24 526.92 L 168.99 526.91 L 167.05 526.99 L 165.23 527.12 L 164.02 527.30 L 163.17 527.50 L 163.29 527.94 L 164.02 528.14 L 167.42 528.61 L 169.96 528.82 L 179.18 529.39 L 184.16 529.63 L 199.20 530.23 L 187.31 530.13 L 139.88 529.55 L 119.99 529.44 L 103.98 529.49 L 99.37 529.62 L 97.19 529.72 L 93.79 530.02 L 91.98 530.38 L 91.49 530.67 L 91.73 530.97 L 93.19 531.35 L 96.58 531.72 L 98.89 531.89 L 105.20 532.19 L 117.81 532.54 L 131.39 532.79 L 158.81 533.16 L 179.43 533.35 L 241.53 533.83 L 210.23 534.49 L 189.73 535.01 L 169.48 535.59 L 159.65 535.95 L 149.95 536.35 L 142.19 536.80 L 137.94 537.22 L 136.25 537.47 L 135.64 537.67 L 135.40 537.86 L 135.76 538.07 L 137.70 538.44 L 140.98 538.73 L 142.92 538.80 L 149.47 538.83 L 158.20 538.73 L 226.73 537.19 L 208.78 538.13 L 191.68 539.21 L 175.42 540.41 L 167.66 541.14 L 163.54 541.70 L 162.08 542.02 L 161.72 542.42 L 162.20 542.62 L 164.14 542.97 L 167.30 543.22 L 169.12 543.29 L 171.30 543.32 L 175.18 543.28 L 178.94 543.16 L 182.46 542.99 L 209.87 541.33 L 227.58 540.32 L 245.65 539.38 L 259.48 538.71 L 273.42 538.10 L 287.62 537.51 L 302.05 536.99 L 307.99 536.85 L 309.33 536.87 L 310.66 536.97 L 301.08 539.05 L 292.83 541.20 L 287.98 542.66 L 283.86 544.14 L 280.22 545.64 L 277.31 547.15 L 273.79 549.80 L 272.70 552.05 L 272.94 555.43 L 251.83 555.84 L 231.09 556.40 L 220.30 556.76 L 209.63 557.16 L 199.20 557.60 L 189.01 558.10 L 182.46 558.47 L 168.02 559.44 L 153.23 559.67 L 145.59 559.86 L 138.07 560.09 L 123.39 560.70 L 113.69 561.25 L 111.26 561.47 L 109.32 561.72 L 106.29 562.29 L 105.32 562.60 L 103.74 563.55 L 103.50 564.74 L 104.10 565.45 L 106.65 566.86 L 108.96 567.75 L 111.75 568.65 L 115.14 569.52 L 119.02 570.38 L 123.39 571.20 L 128.36 571.99 L 132.49 572.55 L 141.83 573.61 L 147.04 574.10 L 151.53 574.45 L 156.26 574.77 L 161.35 575.05 L 166.81 575.26 L 172.27 575.43 L 177.97 575.53 L 183.67 575.57 L 189.49 575.55 L 219.09 575.01 L 234.25 574.70 L 264.33 573.98 L 286.64 573.34 L 308.72 572.64 L 316.12 574.69 L 316.85 574.84 L 319.03 575.08 L 321.21 575.20 L 328.25 575.49 L 336.74 575.74 L 345.35 575.93 L 353.96 576.07 L 362.81 576.16 L 371.67 576.20 L 380.40 576.18 L 389.13 576.10 L 397.87 575.97 L 408.30 575.70 L 413.39 575.50 L 428.07 574.83 L 454.75 575.15 L 468.09 575.27 L 481.56 575.33 L 495.02 575.32 L 508.48 575.24 L 511.51 575.27 L 526.92 575.78 L 533.59 575.94 L 547.17 576.10 L 554.09 576.13 L 569.13 576.10 L 577.25 576.02 L 585.38 575.89 L 593.39 575.70 L 601.27 575.46 L 609.03 575.19 L 617.28 574.80 L 619.70 574.61 L 621.65 574.16 L 626.25 572.75 L 645.90 573.34 L 665.67 573.87 L 700.60 574.68 L 715.77 574.95 L 746.21 575.39 L 759.79 575.62 L 766.71 575.68 L 775.80 575.62 L 784.66 575.39 L 793.03 575.02 L 798.97 574.68 L 804.55 574.30 L 811.58 573.69 L 818.01 573.04 L 823.83 572.33 L 829.17 571.59 L 834.02 570.81 L 838.27 570.00 L 841.91 569.16 L 845.06 568.30 L 847.73 567.43 L 849.67 566.52 L 851.00 565.59 L 851.61 564.97 L 851.25 563.74 L 850.28 563.12 L 848.70 562.53 L 846.39 561.95 L 844.57 561.64 L 842.39 561.38 L 839.84 561.15 L 835.60 560.88 L 830.87 560.65 L 821.04 560.30 L 826.50 559.74 L 831.48 559.16 L 835.96 558.53 L 839.84 557.86 L 846.52 556.46 L 850.52 555.38 L 853.79 554.27 L 860.10 554.21 L 866.29 554.07 L 872.23 553.83 L 877.93 553.55 L 883.27 553.23 L 888.48 552.86 L 897.82 552.01 L 905.83 551.04 L 910.68 550.28 L 915.04 549.50 L 918.68 548.68 L 921.71 547.84 L 924.14 546.98 L 925.72 546.10 L 926.69 545.21 L 926.93 544.32 L 926.32 543.42 L 924.14 542.63 L 922.69 542.41 L 920.14 542.18 L 918.32 542.11 L 916.50 542.08 L 914.92 542.11 L 912.01 542.31 L 904.86 543.01 L 889.82 544.26 L 891.76 543.22 L 891.88 542.69 L 891.27 542.16 L 890.18 542.02 L 888.72 541.92 L 885.45 541.80 L 881.81 541.77 L 874.78 542.54 L 871.02 542.91 L 860.95 543.56 L 848.94 544.17 L 839.24 544.71 L 835.60 544.97 L 828.93 545.63 L 823.47 546.38 L 821.29 546.79 L 818.98 547.37 L 817.28 547.97 L 816.19 548.58 L 815.71 549.20 L 815.83 549.83 L 817.65 551.14 L 819.47 551.82 L 824.08 553.15 L 821.65 554.21 L 819.83 554.72 L 816.56 555.49 L 812.80 556.22 L 809.76 556.68 L 802.73 557.53 L 798.61 557.91 L 792.78 558.36 L 786.48 558.76 L 779.81 559.10 L 756.03 557.90 L 743.78 557.36 L 725.23 556.61 L 706.31 555.94 L 705.21 554.49 L 703.52 553.04 L 701.09 551.61 L 698.18 550.18 L 694.54 548.76 L 690.30 547.37 L 685.44 546.00 L 679.99 544.64 L 667.13 542.00 L 659.97 540.72 L 652.45 539.45 L 644.45 538.22 L 636.08 537.00 L 652.45 535.90 L 667.98 534.66 L 682.29 533.31 L 694.18 531.98 L 704.61 530.53 L 710.79 529.51 L 716.37 528.48 L 721.47 527.40 L 726.80 526.11 L 731.41 524.81 L 735.54 523.48 L 739.05 522.13 L 741.96 520.78 L 745.97 518.29 L 748.03 516.03 L 748.64 514.32 L 748.64 512.62 L 746.94 509.21 L 761.49 509.77 L 771.68 510.01 L 776.90 510.07 L 785.14 510.10 L 799.09 510.04 L 809.89 509.84 L 818.26 509.62 L 826.38 509.32 L 834.14 508.96 L 841.66 508.55 L 848.94 508.08 L 855.85 507.58 L 862.53 507.03 L 874.65 505.84 L 880.11 505.17 L 885.21 504.48 L 889.94 503.77 L 893.09 503.20 L 897.94 502.04 L 899.88 501.42 L 900.61 500.76 L 900.73 500.09 L 900.37 499.64 L 898.18 498.78 L 896.49 498.38 L 894.18 498.00 L 891.39 497.64 L 884.36 497.00 L 876.35 496.53 L 870.65 496.28 L 864.71 496.09 L 858.52 495.96 L 852.09 495.86 L 839.60 495.81 L 825.65 495.98 L 818.74 496.12 L 808.67 496.42 L 798.73 496.79 L 789.15 497.20 L 767.92 498.23 L 744.27 499.27 L 722.32 500.05 L 717.22 500.18 L 712.13 500.27 L 705.70 498.84 L 709.94 498.31 L 717.59 497.18 L 720.74 496.57 L 723.53 495.96 L 725.71 495.32 L 727.77 494.60 L 729.11 493.89 L 729.84 493.17 L 729.84 491.70 L 729.47 490.98 L 728.26 490.36 L 724.98 489.14 L 722.68 488.56 L 720.01 487.99 L 716.74 487.45 L 713.34 486.99 L 709.46 486.56 L 706.55 486.31 L 703.39 486.11 L 700.00 485.94 L 694.30 485.86 L 691.39 485.88 L 688.60 485.97 L 685.56 486.17 L 684.23 486.32 L 682.78 486.61 L 680.23 487.56 L 677.80 488.30 L 674.65 489.01 L 670.77 489.69 L 666.28 490.33 L 661.31 490.92 L 655.85 491.49 L 649.91 492.00 L 643.60 492.46 L 636.93 492.88 L 635.35 492.94 L 633.90 492.95 L 632.44 492.92 L 620.07 492.13 L 608.91 491.49 L 597.39 490.91 L 585.62 490.39 L 573.61 489.90 L 561.36 489.48 L 548.99 489.10 L 536.38 488.78 L 523.77 488.50 L 513.33 488.33 L 502.90 488.21 L 492.35 488.15 L 476.58 488.15 L 460.69 488.22 L 456.93 488.20 L 452.08 487.58 L 445.53 486.45 L 440.92 485.37 L 439.71 484.89 L 438.86 484.39 L 438.50 483.38 L 438.86 482.87 L 440.08 482.11 L 442.26 481.11 L 442.14 480.84 L 441.29 480.59 L 439.95 480.36 L 437.29 480.14 L 435.59 480.05 L 431.59 480.01 L 427.70 480.01 L 423.70 480.05 L 419.82 480.15 L 412.54 480.47 Z" fill="#ffffff" fill-rule="nonzero" group-id="1,7" hidden="true" node-id="156" stroke="none" target-height="126.05264" target-width="1242.001" target-x="-109.00049" target-y="464.8265" visibility="hidden"></path><path d="M 412.54 24.97 L 416.18 23.08 L 423.70 20.55 L 427.70 20.05 L 431.59 20.05 L 435.59 20.55 L 437.29 21.44 L 439.95 23.83 L 441.29 26.23 L 442.14 28.87 L 442.26 31.77 L 440.08 42.36 L 438.86 50.43 L 438.50 55.85 L 438.86 66.56 L 439.71 71.86 L 440.92 77.03 L 445.53 88.50 L 452.08 100.47 L 456.93 107.03 L 460.69 107.28 L 476.58 106.52 L 492.35 106.52 L 502.90 107.15 L 513.33 108.41 L 523.77 110.18 L 536.38 113.20 L 548.99 116.61 L 561.36 120.64 L 573.61 125.05 L 585.62 130.22 L 597.39 135.77 L 608.91 141.94 L 620.07 148.75 L 632.44 157.07 L 633.90 157.45 L 635.35 157.32 L 636.93 156.69 L 643.60 152.28 L 649.91 147.36 L 655.85 141.94 L 661.31 135.89 L 666.28 129.59 L 670.77 122.78 L 674.65 115.60 L 677.80 108.03 L 680.23 100.22 L 682.78 90.14 L 684.23 87.11 L 685.56 85.47 L 688.60 83.33 L 691.39 82.45 L 694.30 82.19 L 700.00 83.08 L 703.39 84.84 L 706.55 86.98 L 709.46 89.63 L 713.34 94.17 L 716.74 99.08 L 720.01 104.76 L 722.68 110.81 L 724.98 116.98 L 728.26 129.97 L 729.47 136.52 L 729.84 144.21 L 729.84 159.72 L 729.11 167.41 L 727.77 174.97 L 725.71 182.53 L 723.53 189.34 L 720.74 195.89 L 717.59 202.32 L 709.94 214.30 L 705.70 219.97 L 712.13 235.10 L 717.22 234.21 L 722.32 232.83 L 744.27 224.51 L 767.92 213.41 L 789.15 202.57 L 798.73 198.16 L 808.67 194.25 L 818.74 191.10 L 825.65 189.59 L 839.60 187.83 L 852.09 188.33 L 858.52 189.34 L 864.71 190.73 L 870.65 192.74 L 876.47 195.39 L 884.36 200.43 L 891.39 207.24 L 894.18 211.02 L 896.49 215.05 L 898.18 219.34 L 900.37 228.41 L 900.73 233.20 L 900.61 240.26 L 899.88 247.32 L 897.94 253.88 L 893.09 266.23 L 889.94 272.28 L 885.21 279.84 L 880.11 287.16 L 874.65 294.21 L 862.53 306.82 L 855.85 312.74 L 848.94 318.04 L 841.66 322.95 L 834.14 327.37 L 826.38 331.15 L 818.26 334.30 L 809.89 336.69 L 799.09 338.84 L 785.14 339.47 L 776.90 339.09 L 771.68 338.46 L 761.49 335.94 L 746.94 330.01 L 748.64 366.19 L 748.64 384.22 L 748.03 402.37 L 745.97 426.32 L 741.96 452.79 L 739.05 467.16 L 735.54 481.40 L 731.41 495.52 L 726.80 509.39 L 721.47 523.00 L 716.37 534.47 L 710.79 545.44 L 704.61 556.28 L 694.18 571.66 L 682.29 585.77 L 667.98 600.14 L 652.45 613.25 L 636.08 624.98 L 644.45 637.83 L 652.45 650.94 L 659.97 664.43 L 667.13 678.04 L 679.99 706.03 L 685.44 720.40 L 690.30 735.02 L 694.54 749.77 L 698.18 764.77 L 701.09 780.02 L 703.52 795.15 L 705.21 810.53 L 706.31 825.90 L 725.23 833.09 L 743.78 841.03 L 756.03 846.70 L 779.81 859.43 L 786.48 855.90 L 792.78 851.62 L 798.61 846.83 L 802.73 842.80 L 806.49 838.51 L 809.76 833.85 L 812.80 828.93 L 816.56 821.11 L 819.83 813.05 L 821.65 807.63 L 824.08 796.28 L 819.47 782.16 L 817.65 774.98 L 815.83 761.11 L 815.71 754.43 L 816.19 747.88 L 817.28 741.32 L 818.98 735.02 L 821.29 728.84 L 823.47 724.43 L 828.93 716.49 L 835.60 709.56 L 839.24 706.78 L 848.94 700.99 L 860.95 694.56 L 871.02 687.62 L 874.78 683.72 L 881.81 675.52 L 885.45 675.90 L 888.72 677.16 L 890.18 678.17 L 891.27 679.68 L 891.88 685.36 L 891.76 690.90 L 889.82 701.99 L 904.86 688.76 L 912.01 681.32 L 914.92 679.18 L 916.50 678.80 L 920.14 679.94 L 922.69 682.33 L 924.14 684.73 L 926.32 693.04 L 926.93 702.62 L 926.69 712.08 L 925.72 721.53 L 924.14 730.86 L 921.71 739.94 L 918.68 748.89 L 915.04 757.58 L 910.68 765.90 L 905.83 773.97 L 897.82 784.18 L 888.48 793.26 L 883.27 797.16 L 877.93 800.57 L 872.23 803.59 L 866.29 806.11 L 860.10 807.63 L 853.79 808.26 L 850.52 819.98 L 846.52 831.45 L 843.36 839.01 L 839.84 846.32 L 835.96 853.38 L 831.48 860.06 L 826.50 866.24 L 821.04 872.17 L 830.87 875.95 L 835.60 878.34 L 839.84 881.24 L 842.39 883.64 L 844.57 886.41 L 846.39 889.69 L 848.70 895.86 L 850.28 902.17 L 851.25 908.72 L 851.61 921.83 L 851.00 928.39 L 849.67 938.22 L 847.73 947.92 L 845.06 957.13 L 841.91 966.20 L 838.27 975.15 L 834.02 983.72 L 829.17 992.04 L 823.83 999.86 L 818.01 1007.42 L 811.58 1014.35 L 804.55 1020.78 L 798.97 1024.82 L 788.90 1030.61 L 780.29 1033.77 L 771.32 1035.28 L 763.19 1035.28 L 715.77 1027.71 L 700.60 1024.82 L 665.67 1016.24 L 645.90 1010.57 L 626.25 1004.39 L 621.65 1019.27 L 619.70 1024.06 L 617.28 1026.08 L 609.03 1030.24 L 601.27 1033.13 L 593.39 1035.66 L 585.38 1037.67 L 577.25 1039.06 L 569.13 1039.94 L 554.09 1040.19 L 547.17 1039.94 L 533.59 1038.18 L 526.92 1036.54 L 511.51 1031.12 L 508.48 1030.74 L 495.02 1031.62 L 481.56 1031.75 L 468.09 1031.12 L 454.75 1029.86 L 428.07 1026.45 L 413.39 1033.51 L 408.30 1035.66 L 397.87 1038.56 L 389.13 1039.94 L 380.40 1040.70 L 371.67 1040.95 L 362.81 1040.57 L 353.96 1039.56 L 345.35 1038.05 L 336.74 1036.03 L 328.25 1033.39 L 321.21 1030.36 L 319.03 1029.10 L 316.85 1026.58 L 316.12 1024.94 L 308.72 1003.13 L 286.64 1010.57 L 264.33 1017.38 L 249.29 1021.41 L 234.25 1025.07 L 213.14 1029.61 L 189.49 1034.02 L 183.67 1034.27 L 177.97 1033.89 L 172.27 1032.76 L 166.81 1030.99 L 161.35 1028.72 L 156.26 1025.82 L 151.53 1022.42 L 147.04 1018.64 L 136.97 1008.05 L 128.36 996.33 L 123.39 987.88 L 119.02 979.18 L 115.14 970.11 L 111.75 960.78 L 108.96 951.33 L 106.65 941.87 L 104.10 926.87 L 103.50 919.31 L 103.74 906.70 L 105.32 896.62 L 106.29 893.34 L 109.32 887.29 L 111.26 884.64 L 113.69 882.25 L 123.39 876.45 L 138.07 870.02 L 145.59 867.50 L 153.23 865.48 L 168.02 863.09 L 182.46 852.75 L 189.01 848.85 L 199.20 843.55 L 209.63 838.89 L 220.30 834.60 L 231.09 830.82 L 251.83 824.90 L 272.94 820.48 L 272.70 784.69 L 273.79 760.74 L 277.31 732.63 L 280.22 716.62 L 283.86 700.73 L 287.98 684.98 L 292.83 669.47 L 301.08 646.66 L 310.66 624.60 L 309.33 623.59 L 307.99 623.34 L 302.05 624.85 L 287.62 630.40 L 273.42 636.57 L 259.48 643.13 L 245.65 650.19 L 227.58 660.15 L 209.87 670.86 L 182.46 688.51 L 178.94 690.27 L 175.18 691.53 L 171.30 692.04 L 169.12 691.66 L 167.30 690.90 L 164.14 688.25 L 162.20 684.60 L 161.72 682.46 L 162.08 678.17 L 163.54 674.77 L 167.66 668.84 L 175.42 661.15 L 191.68 648.42 L 208.78 636.95 L 226.73 626.99 L 158.20 643.25 L 149.47 644.39 L 142.92 644.01 L 140.98 643.25 L 137.70 640.23 L 135.76 636.32 L 135.40 634.05 L 135.64 632.04 L 136.25 629.89 L 137.94 627.25 L 142.19 622.83 L 149.95 618.04 L 159.65 613.76 L 169.48 609.98 L 189.73 603.80 L 210.23 598.25 L 241.53 591.32 L 179.43 586.15 L 158.81 584.14 L 131.39 580.23 L 117.81 577.58 L 105.20 573.93 L 98.89 570.65 L 96.58 568.88 L 93.19 564.98 L 91.73 560.94 L 91.49 557.79 L 91.98 554.64 L 93.79 550.86 L 97.19 547.71 L 99.37 546.57 L 103.98 545.19 L 119.99 544.68 L 139.88 545.82 L 187.31 551.99 L 199.20 553.13 L 184.16 546.70 L 179.18 544.18 L 169.96 538.13 L 167.42 535.86 L 165.11 533.08 L 164.02 530.94 L 163.29 528.80 L 163.17 524.13 L 164.02 521.99 L 165.23 520.10 L 167.05 518.71 L 168.99 517.83 L 177.24 517.96 L 183.19 518.71 L 215.45 526.15 L 224.30 527.66 L 217.02 519.22 L 210.23 510.39 L 201.98 497.92 L 195.31 484.55 L 192.65 477.62 L 189.13 464.64 L 187.67 452.91 L 187.92 435.27 L 188.28 430.98 L 192.16 413.96 L 192.65 401.61 L 193.37 393.67 L 194.59 385.85 L 196.53 378.04 L 198.95 370.35 L 201.86 363.04 L 205.38 355.98 L 213.14 343.88 L 233.16 319.30 L 238.98 310.98 L 244.07 302.16 L 263.84 261.44 L 269.18 251.10 L 281.07 231.06 L 295.13 210.77 L 287.98 208.75 L 281.19 206.10 L 274.64 203.08 L 268.21 199.30 L 262.14 195.14 L 256.32 190.60 L 250.86 185.56 L 245.77 180.14 L 240.92 174.34 L 236.55 168.29 L 232.67 161.99 L 229.03 155.30 L 225.64 147.62 L 222.73 139.67 L 220.30 131.61 L 218.36 123.29 L 216.90 114.84 L 216.18 106.40 L 215.81 97.95 L 216.18 89.50 L 217.27 81.82 L 219.09 74.13 L 222.73 64.29 L 225.03 59.63 L 227.82 55.34 L 231.22 51.56 L 234.98 48.03 L 240.55 44.76 L 243.47 43.75 L 248.20 42.99 L 257.78 42.99 L 262.51 43.50 L 268.57 45.39 L 274.52 47.66 L 280.22 50.55 L 290.89 57.61 L 295.86 61.52 L 305.32 70.85 L 315.63 83.83 L 332.25 108.79 L 338.56 117.61 L 345.23 126.19 L 349.96 131.73 L 360.27 141.82 L 362.45 143.46 L 363.66 143.83 L 365.00 143.71 L 367.91 142.32 L 376.28 137.03 L 373.12 121.65 L 372.27 113.83 L 371.91 105.89 L 372.15 98.08 L 372.88 90.26 L 374.22 82.45 L 376.16 74.88 L 378.70 67.45 L 383.80 56.10 L 386.83 50.68 L 394.11 40.85 L 402.72 32.15 L 412.54 24.97 Z M 409.15 41.10 L 404.66 45.51 L 400.66 50.30 L 397.02 55.47 L 393.86 60.89 L 388.65 72.61 L 385.01 84.84 L 383.80 91.02 L 383.31 111.56 L 384.53 125.05 L 385.62 131.86 L 397.26 126.19 L 409.03 121.27 L 421.15 116.98 L 429.40 115.22 L 437.41 112.82 L 445.17 109.80 L 438.50 97.57 L 435.59 91.14 L 427.58 68.58 L 427.22 57.87 L 427.58 47.03 L 430.86 30.64 L 426.86 31.14 L 422.97 32.28 L 419.21 33.92 L 414.00 37.19 L 409.15 41.10 Z M 252.93 53.83 L 262.14 58.50 L 272.45 77.15 L 276.58 88.50 L 286.52 126.56 L 289.07 134.00 L 295.13 146.98 L 298.53 152.41 L 302.53 157.45 L 311.63 166.52 L 316.60 170.56 L 320.97 173.33 L 323.27 174.46 L 325.82 174.97 L 330.92 171.82 L 355.17 151.52 L 351.17 147.11 L 346.93 143.08 L 345.11 142.70 L 334.31 130.09 L 308.23 92.28 L 300.71 82.32 L 296.35 77.15 L 291.50 72.36 L 286.40 67.95 L 280.94 64.04 L 275.24 60.51 L 269.30 57.49 L 265.42 55.97 L 261.30 54.84 L 252.93 53.83 Z M 230.97 71.10 L 229.27 75.39 L 226.97 84.34 L 226.12 91.27 L 226.12 98.33 L 226.49 105.39 L 228.43 120.64 L 230.25 128.83 L 232.67 136.90 L 235.70 144.72 L 239.22 152.28 L 243.34 159.46 L 248.07 166.40 L 253.29 172.70 L 259.11 178.75 L 265.42 184.17 L 272.21 188.96 L 282.04 194.51 L 292.22 198.54 L 303.02 200.81 L 314.42 188.33 L 318.54 184.42 L 307.14 177.11 L 301.81 172.83 L 296.83 168.04 L 292.47 162.87 L 285.31 152.15 L 280.22 141.69 L 277.18 133.50 L 274.52 125.05 L 265.90 90.64 L 262.14 80.93 L 259.72 76.14 L 256.81 71.98 L 254.50 69.59 L 251.71 67.70 L 248.56 66.19 L 239.34 67.32 L 236.43 68.20 L 230.97 71.10 Z M 687.51 113.33 L 684.35 120.77 L 680.59 127.95 L 676.23 134.76 L 671.37 141.19 L 666.16 147.24 L 660.46 152.91 L 654.39 158.20 L 641.54 167.53 L 658.40 186.06 L 666.28 195.77 L 673.80 205.85 L 678.41 213.79 L 683.62 221.36 L 687.99 219.47 L 692.11 217.20 L 696.00 214.30 L 702.55 207.24 L 709.09 196.78 L 712.37 189.97 L 715.04 182.91 L 717.22 175.72 L 718.80 168.41 L 719.77 160.85 L 720.25 153.29 L 720.13 145.85 L 719.53 138.29 L 717.95 138.54 L 716.98 130.22 L 714.92 122.03 L 712.85 116.23 L 710.43 110.56 L 707.52 105.14 L 704.00 100.22 L 701.21 97.32 L 698.18 94.80 L 694.66 92.66 L 691.99 99.34 L 687.51 113.33 Z M 464.21 118.12 L 451.84 120.26 L 439.71 123.03 L 427.58 126.44 L 415.70 130.72 L 404.17 135.51 L 383.43 146.10 L 374.34 151.77 L 365.60 157.95 L 342.07 176.86 L 334.92 183.29 L 319.39 199.42 L 311.02 208.88 L 303.02 218.58 L 295.38 228.79 L 288.34 239.26 L 281.67 250.10 L 274.64 263.21 L 267.97 276.57 L 261.90 290.31 L 259.35 294.59 L 250.74 312.49 L 248.32 316.78 L 245.16 321.57 L 231.22 339.47 L 228.18 344.26 L 223.57 348.80 L 219.57 353.71 L 215.93 359.01 L 212.90 364.68 L 210.11 370.48 L 207.93 376.65 L 206.11 382.83 L 203.68 395.56 L 214.60 383.84 L 222.73 376.78 L 227.21 373.88 L 235.22 369.22 L 243.34 365.18 L 251.83 361.78 L 260.57 358.88 L 269.30 356.48 L 278.28 354.59 L 287.25 353.33 L 296.35 352.58 L 318.30 352.32 L 331.04 352.95 L 343.77 354.22 L 356.39 356.23 L 369.00 358.63 L 393.86 365.06 L 418.24 373.00 L 432.31 378.29 L 446.14 384.34 L 459.72 390.90 L 473.07 398.08 L 486.04 405.90 L 498.66 414.34 L 514.55 427.20 L 523.04 434.76 L 531.16 442.83 L 538.80 451.28 L 546.08 460.10 L 552.75 469.43 L 565.85 491.23 L 571.19 503.59 L 575.92 516.19 L 578.47 524.76 L 580.53 533.46 L 581.98 542.41 L 582.95 549.98 L 583.44 557.66 L 583.44 565.35 L 582.95 573.04 L 581.86 580.73 L 580.29 588.30 L 578.35 595.73 L 575.80 602.92 L 572.89 609.35 L 565.97 621.57 L 561.85 627.25 L 557.48 632.54 L 552.51 637.46 L 545.96 643.00 L 539.05 647.79 L 524.37 656.49 L 537.11 654.09 L 549.60 651.07 L 561.97 647.29 L 574.22 643.25 L 585.50 638.84 L 596.66 634.05 L 607.58 628.76 L 618.37 622.96 L 628.92 616.66 L 639.11 609.85 L 648.81 602.54 L 658.27 594.60 L 667.25 586.28 L 675.74 577.33 L 683.62 567.87 L 691.02 557.79 L 691.75 558.04 L 704.24 534.72 L 711.64 518.71 L 719.53 497.16 L 723.65 483.67 L 727.17 470.06 L 732.75 442.33 L 734.93 428.33 L 736.38 414.22 L 738.20 378.04 L 736.63 337.32 L 735.41 324.72 L 734.44 321.69 L 732.87 318.92 L 715.16 298.63 L 717.83 294.34 L 720.01 291.95 L 721.59 291.32 L 726.92 290.18 L 743.18 288.16 L 757.37 284.26 L 770.95 278.58 L 777.50 275.05 L 783.69 271.02 L 790.84 265.73 L 797.64 259.93 L 804.06 253.75 L 828.93 227.78 L 835.48 221.73 L 843.12 215.68 L 848.82 212.53 L 851.85 211.40 L 856.58 210.77 L 870.77 210.39 L 883.63 215.31 L 880.36 212.03 L 872.96 206.61 L 864.83 202.70 L 860.46 201.31 L 851.61 199.55 L 847.00 199.30 L 839.24 199.30 L 831.48 200.05 L 823.83 201.44 L 816.31 203.46 L 801.64 209.00 L 790.97 214.04 L 769.38 225.01 L 757.97 230.31 L 735.05 240.14 L 729.96 241.02 L 714.92 245.56 L 709.82 246.69 L 704.61 247.20 L 696.60 227.15 L 688.11 230.68 L 679.50 233.46 L 669.68 218.83 L 659.37 204.46 L 652.21 195.14 L 644.57 186.31 L 636.56 177.62 L 631.11 172.07 L 619.34 161.99 L 600.42 148.50 L 599.69 149.13 L 588.78 143.58 L 577.62 138.54 L 566.22 134.00 L 551.06 128.96 L 535.65 124.55 L 525.34 122.03 L 514.91 120.14 L 504.36 118.75 L 500.72 117.49 L 497.08 116.86 L 473.19 116.98 L 464.21 118.12 Z M 838.15 233.58 L 811.71 261.19 L 802.49 269.89 L 796.18 275.31 L 789.39 280.35 L 777.26 287.79 L 766.71 292.58 L 758.58 295.35 L 750.33 297.62 L 733.47 301.02 L 744.15 313.00 L 748.15 316.53 L 752.52 319.68 L 757.25 322.20 L 762.95 324.47 L 768.77 326.36 L 774.59 327.49 L 780.66 328.25 L 788.66 328.50 L 796.67 327.87 L 804.79 326.61 L 812.68 324.47 L 820.32 321.69 L 827.72 318.42 L 835.96 313.50 L 843.97 308.08 L 851.61 302.03 L 858.77 295.47 L 865.44 288.29 L 871.62 280.60 L 877.20 272.53 L 882.05 264.09 L 886.30 255.14 L 889.45 245.68 L 890.30 239.26 L 889.94 235.85 L 886.30 231.44 L 881.81 227.41 L 878.66 225.01 L 871.62 221.73 L 867.98 220.73 L 864.22 220.35 L 860.22 220.60 L 855.98 221.48 L 851.97 223.12 L 844.70 227.78 L 838.15 233.58 Z M 263.24 369.34 L 248.92 374.64 L 241.89 378.17 L 235.10 382.07 L 228.79 386.48 L 222.73 391.40 L 217.15 396.82 L 212.17 402.75 L 207.69 409.43 L 204.90 414.34 L 202.59 419.38 L 200.77 424.80 L 198.47 435.90 L 197.98 447.37 L 199.07 458.59 L 200.65 466.02 L 202.83 473.34 L 205.50 480.39 L 208.78 487.20 L 212.42 493.76 L 216.66 499.93 L 221.27 505.86 L 226.36 511.28 L 231.94 516.19 L 239.58 522.24 L 247.35 527.66 L 255.47 532.71 L 263.84 537.12 L 275.24 542.54 L 287.01 547.33 L 299.02 551.49 L 311.15 555.14 L 335.65 561.19 L 354.57 564.72 L 378.58 567.12 L 393.02 567.75 L 410.12 566.49 L 418.73 565.23 L 426.98 563.34 L 432.43 561.70 L 437.77 559.43 L 446.38 554.89 L 452.33 550.10 L 460.09 541.40 L 459.72 544.81 L 458.75 547.83 L 457.42 550.73 L 454.75 554.64 L 451.60 558.29 L 444.44 564.60 L 459.12 565.23 L 468.70 563.97 L 475.49 561.57 L 485.20 555.52 L 485.92 558.29 L 485.92 560.94 L 485.44 562.71 L 484.71 564.35 L 481.44 567.75 L 476.95 570.77 L 473.19 572.29 L 461.18 575.31 L 469.43 578.46 L 472.10 579.72 L 474.52 581.36 L 476.46 583.76 L 478.04 587.16 L 478.04 591.57 L 477.19 594.22 L 475.73 596.49 L 473.79 598.51 L 471.49 599.89 L 468.82 600.52 L 455.24 601.53 L 427.83 601.78 L 449.29 609.60 L 454.39 612.12 L 460.57 616.40 L 462.27 619.18 L 462.88 621.70 L 462.64 626.87 L 461.91 629.26 L 460.09 631.53 L 458.03 633.17 L 455.60 634.05 L 450.51 634.81 L 443.59 633.80 L 439.83 632.92 L 424.91 628.00 L 410.24 622.58 L 395.80 616.40 L 381.61 609.72 L 377.49 608.59 L 372.15 608.84 L 346.44 613.51 L 324.00 618.67 L 330.67 623.72 L 345.23 632.41 L 352.75 636.32 L 364.88 641.36 L 377.13 645.90 L 389.74 649.68 L 402.35 652.83 L 415.21 655.48 L 428.19 657.37 L 447.72 658.76 L 475.37 657.12 L 490.29 654.47 L 500.84 651.95 L 514.67 647.67 L 527.89 641.62 L 534.07 637.96 L 540.14 633.67 L 545.96 628.63 L 551.18 623.09 L 555.91 616.91 L 560.03 610.35 L 563.55 603.42 L 566.58 596.24 L 568.88 588.67 L 570.70 581.11 L 571.80 573.29 L 572.16 562.83 L 571.92 552.24 L 571.31 545.19 L 568.64 531.45 L 565.73 520.98 L 562.21 510.90 L 558.09 501.07 L 553.24 491.49 L 547.90 482.16 L 542.08 473.21 L 535.65 464.76 L 528.86 456.57 L 521.58 448.88 L 512.85 440.31 L 503.51 432.24 L 493.93 424.80 L 483.86 417.75 L 473.55 411.19 L 463.00 405.14 L 438.98 393.29 L 414.12 383.21 L 401.51 378.92 L 375.79 371.48 L 362.81 368.59 L 340.74 364.93 L 329.70 363.80 L 318.54 363.17 L 307.39 363.17 L 296.23 363.67 L 285.19 364.80 L 274.15 366.69 L 263.24 369.34 Z M 171.78 526.28 L 174.57 530.69 L 176.27 532.58 L 186.58 538.50 L 203.80 545.69 L 225.76 552.87 L 238.98 556.53 L 256.93 560.19 L 293.44 563.97 L 307.14 563.84 L 282.88 556.28 L 263.96 549.09 L 252.68 545.44 L 195.80 530.18 L 184.28 527.54 L 178.09 526.66 L 171.78 526.28 Z M 99.86 556.91 L 102.41 560.94 L 103.98 562.71 L 106.05 563.84 L 113.20 566.36 L 120.60 568.25 L 135.52 571.28 L 172.75 576.45 L 191.43 578.21 L 219.57 580.35 L 303.99 584.26 L 332.49 583.88 L 374.09 584.51 L 406.24 584.01 L 438.13 582.37 L 453.90 580.61 L 452.57 578.84 L 449.17 576.57 L 446.26 575.82 L 443.11 575.56 L 389.38 576.07 L 357.72 575.31 L 341.83 574.18 L 267.48 567.24 L 230.61 564.35 L 224.67 564.60 L 131.88 553.50 L 120.24 552.87 L 108.59 552.87 L 106.05 553.13 L 103.86 554.13 L 99.86 556.91 Z M 440.44 587.41 L 381.49 590.69 L 366.82 592.08 L 352.14 594.09 L 340.25 595.86 L 316.85 600.77 L 305.20 603.93 L 282.40 611.36 L 268.69 616.28 L 255.23 621.83 L 242.01 627.88 L 229.03 634.68 L 216.30 641.87 L 198.95 653.09 L 193.98 656.49 L 191.92 658.63 L 190.10 661.15 L 184.52 665.06 L 179.18 669.47 L 176.03 672.88 L 173.24 676.53 L 170.81 680.57 L 176.39 680.44 L 177.00 679.56 L 214.60 656.99 L 244.19 640.48 L 259.35 632.92 L 274.64 626.11 L 290.28 619.81 L 302.17 615.77 L 314.30 612.12 L 326.43 609.09 L 338.92 606.70 L 361.48 603.04 L 384.16 599.89 L 437.53 594.09 L 461.66 593.21 L 464.09 592.83 L 466.27 591.70 L 470.16 588.67 L 463.73 586.78 L 455.48 586.28 L 440.44 587.41 Z M 304.11 590.06 L 282.52 592.96 L 260.93 596.49 L 258.14 597.12 L 253.05 599.77 L 248.68 600.14 L 219.21 605.82 L 202.96 609.35 L 181.37 615.02 L 170.69 618.55 L 158.44 623.34 L 150.80 627.62 L 147.16 630.27 L 143.64 631.41 L 145.95 633.93 L 147.40 634.68 L 154.32 634.56 L 159.41 633.80 L 207.81 622.46 L 247.95 612.25 L 271.85 607.08 L 307.75 597.62 L 320.00 594.72 L 338.31 591.07 L 344.26 588.93 L 337.59 588.04 L 330.92 587.92 L 317.45 588.67 L 304.11 590.06 Z M 391.07 605.56 L 400.90 610.61 L 434.37 622.96 L 440.92 624.85 L 447.60 625.98 L 449.29 625.86 L 453.90 623.97 L 454.99 624.47 L 450.87 620.31 L 446.02 617.41 L 431.34 611.99 L 416.42 607.71 L 413.88 606.07 L 411.33 605.06 L 408.54 604.56 L 404.17 604.43 L 391.07 605.56 Z M 319.88 629.64 L 314.91 642.50 L 313.57 642.12 L 313.45 646.28 L 314.42 647.54 L 312.12 645.90 L 306.54 661.03 L 301.56 676.28 L 297.08 691.78 L 292.95 707.54 L 289.56 723.30 L 286.77 739.18 L 284.70 755.19 L 283.25 771.32 L 282.88 786.83 L 283.13 802.33 L 283.61 812.67 L 286.04 833.09 L 287.01 833.59 L 286.40 843.05 L 288.95 862.33 L 296.95 910.86 L 298.41 916.28 L 301.44 931.91 L 304.96 947.42 L 309.08 962.80 L 309.81 964.56 L 312.12 967.08 L 314.42 968.34 L 322.06 971.12 L 332.86 973.76 L 343.65 975.65 L 354.69 976.79 L 365.73 977.17 L 376.76 976.79 L 387.80 975.78 L 398.72 973.89 L 409.51 971.50 L 420.18 968.22 L 419.82 919.18 L 418.97 901.03 L 417.88 814.81 L 418.00 799.06 L 418.85 783.30 L 422.85 783.05 L 425.40 791.37 L 427.46 833.72 L 428.80 870.27 L 429.40 903.93 L 430.01 915.15 L 430.37 958.26 L 430.13 1001.50 L 429.77 1008.43 L 428.92 1015.36 L 440.92 1017.63 L 453.17 1019.14 L 465.42 1020.03 L 484.95 1021.16 L 506.54 1020.03 L 506.18 1009.18 L 505.21 998.47 L 504.60 966.45 L 504.36 934.56 L 504.97 870.65 L 505.69 861.96 L 506.42 835.74 L 508.60 799.06 L 509.45 789.85 L 510.91 780.78 L 514.43 779.90 L 515.64 782.79 L 515.88 800.95 L 516.61 819.22 L 516.49 847.33 L 515.03 875.44 L 514.67 903.17 L 514.91 966.58 L 524.74 969.60 L 534.68 972.13 L 544.63 974.02 L 554.82 975.53 L 575.19 977.42 L 583.80 977.17 L 592.29 976.16 L 600.78 974.65 L 609.15 972.50 L 617.40 969.73 L 625.28 966.33 L 627.59 959.52 L 629.41 952.46 L 632.20 938.09 L 636.08 925.36 L 640.93 899.01 L 645.42 867.63 L 655.49 784.69 L 659.00 785.06 L 660.22 792.37 L 660.82 799.69 L 660.94 807.12 L 660.46 829.31 L 658.52 840.02 L 656.46 861.58 L 653.54 883.89 L 649.91 906.20 L 645.54 928.26 L 640.69 950.32 L 629.65 993.93 L 647.12 999.60 L 664.82 1004.77 L 682.65 1009.44 L 700.60 1013.60 L 718.68 1017.25 L 736.75 1020.40 L 733.47 1014.73 L 730.68 1008.68 L 728.38 1002.50 L 726.68 996.08 L 725.47 988.01 L 724.98 979.94 L 725.11 971.87 L 726.92 947.67 L 730.93 931.03 L 733.47 922.96 L 739.30 908.72 L 742.57 902.80 L 746.33 897.00 L 750.58 891.58 L 755.18 886.54 L 760.16 882.12 L 765.62 878.09 L 771.44 874.81 L 777.62 872.17 L 769.86 866.87 L 761.73 862.08 L 745.00 853.51 L 726.56 845.44 L 707.64 838.38 L 707.64 853.76 L 707.28 861.45 L 706.31 869.01 L 703.64 880.86 L 702.18 884.52 L 700.24 887.92 L 697.57 890.95 L 697.69 848.09 L 697.21 837.38 L 694.90 812.16 L 693.08 797.54 L 690.90 783.17 L 688.11 768.80 L 684.84 754.56 L 680.83 740.44 L 676.35 726.57 L 667.74 703.76 L 663.61 694.94 L 655.00 677.41 L 641.90 654.09 L 634.99 642.62 L 627.59 631.53 L 599.33 645.27 L 592.05 648.42 L 584.65 651.07 L 554.09 660.78 L 540.75 664.18 L 527.40 667.08 L 513.82 669.47 L 500.23 671.24 L 486.65 672.25 L 472.94 672.75 L 459.24 672.62 L 445.65 671.62 L 431.95 669.85 L 420.18 668.09 L 408.54 665.82 L 397.02 663.17 L 374.34 656.11 L 352.14 647.29 L 335.89 639.22 L 319.88 629.64 Z M 875.26 697.33 L 863.74 705.40 L 847.36 714.22 L 843.36 716.87 L 839.84 720.15 L 836.57 723.80 L 833.78 727.71 L 831.35 732.00 L 829.41 736.53 L 827.96 741.20 L 825.78 752.04 L 825.90 758.21 L 826.50 764.39 L 827.96 773.59 L 829.05 778.13 L 830.51 782.54 L 832.45 786.70 L 834.99 790.48 L 837.42 793.13 L 840.33 795.02 L 843.48 796.28 L 850.15 797.42 L 858.89 796.53 L 863.86 795.02 L 868.71 793.00 L 873.32 790.36 L 882.17 784.31 L 889.57 777.63 L 897.34 767.79 L 901.34 761.37 L 904.86 754.56 L 910.56 741.07 L 913.22 729.73 L 913.83 720.27 L 901.34 739.43 L 894.06 748.26 L 881.93 760.74 L 877.57 764.39 L 871.02 768.17 L 867.38 769.43 L 869.80 764.89 L 872.59 760.74 L 885.21 745.10 L 891.03 737.42 L 896.37 729.22 L 901.10 720.78 L 905.34 711.95 L 909.22 702.88 L 912.50 693.68 L 905.46 699.35 L 895.76 708.68 L 869.44 728.72 L 867.38 730.36 L 864.95 731.36 L 862.40 731.74 L 859.74 731.36 L 862.40 726.20 L 875.14 706.78 L 879.63 698.34 L 881.93 690.78 L 878.29 693.68 L 875.26 697.33 Z M 817.65 840.02 L 813.77 845.57 L 809.52 850.61 L 804.79 855.15 L 799.58 859.31 L 794.12 862.96 L 788.42 866.24 L 794.73 868.89 L 798.00 869.52 L 805.16 869.77 L 808.67 869.39 L 810.25 868.64 L 817.16 861.96 L 822.02 856.16 L 826.50 849.85 L 830.51 843.30 L 834.02 836.49 L 837.05 829.31 L 839.72 822.00 L 843.48 807.00 L 837.05 805.61 L 833.29 802.71 L 826.87 822.00 L 821.17 834.22 L 817.65 840.02 Z M 267.36 833.09 L 256.93 834.85 L 256.81 836.11 L 246.13 837.63 L 225.88 843.80 L 215.93 847.46 L 206.11 851.62 L 197.38 856.41 L 188.76 861.33 L 180.64 867.25 L 186.82 872.80 L 192.40 878.97 L 197.38 885.40 L 201.86 892.33 L 205.87 899.52 L 209.50 907.08 L 215.57 922.71 L 221.39 943.01 L 224.06 955.11 L 225.03 976.66 L 224.79 987.38 L 224.30 992.80 L 223.33 997.97 L 221.88 1003.13 L 218.84 1010.70 L 215.21 1017.76 L 232.06 1014.48 L 263.11 1006.66 L 291.38 997.84 L 305.44 992.67 L 295.74 952.34 L 287.37 912.12 L 279.73 867.38 L 275.12 831.32 L 267.36 833.09 Z M 125.21 888.17 L 122.30 890.07 L 117.93 894.10 L 116.72 896.12 L 114.90 900.40 L 113.93 906.96 L 114.05 920.70 L 114.78 927.50 L 116.48 937.59 L 121.09 954.98 L 126.30 969.60 L 132.97 983.47 L 136.97 990.15 L 141.34 996.45 L 146.19 1002.38 L 151.41 1007.92 L 161.23 1015.61 L 166.57 1018.89 L 172.27 1021.29 L 176.15 1022.42 L 184.28 1023.43 L 191.92 1022.67 L 195.56 1021.54 L 198.95 1019.90 L 202.96 1016.75 L 204.53 1014.61 L 207.56 1009.56 L 209.99 1004.27 L 211.93 998.72 L 214.24 987.13 L 214.84 981.20 L 215.08 972.25 L 214.60 963.55 L 213.14 954.48 L 208.90 936.70 L 203.08 919.31 L 199.44 910.86 L 195.44 902.80 L 190.83 894.98 L 185.73 887.42 L 181.97 882.63 L 179.79 880.36 L 173.12 875.70 L 169.96 874.43 L 160.75 875.32 L 153.35 876.83 L 146.07 878.85 L 138.91 881.49 L 125.21 888.17 Z M 776.17 884.90 L 773.14 885.91 L 770.35 887.42 L 765.13 891.45 L 760.40 895.99 L 755.55 902.17 L 751.30 908.72 L 747.66 915.65 L 744.51 922.96 L 741.84 930.40 L 738.08 945.91 L 736.02 961.54 L 735.29 968.85 L 735.29 976.03 L 735.78 983.22 L 736.75 990.40 L 738.33 997.34 L 740.39 1004.27 L 742.09 1008.43 L 744.39 1012.46 L 747.18 1016.24 L 750.45 1019.27 L 752.88 1020.91 L 755.55 1022.17 L 758.46 1023.05 L 763.55 1023.68 L 773.62 1023.43 L 778.59 1022.55 L 783.45 1020.91 L 788.05 1018.64 L 793.39 1015.24 L 798.48 1011.45 L 807.70 1002.76 L 815.83 992.80 L 821.17 984.60 L 825.90 976.29 L 832.93 959.39 L 835.84 950.70 L 838.15 941.75 L 839.84 932.80 L 840.94 923.72 L 841.18 916.79 L 840.94 909.98 L 840.21 903.17 L 839.00 896.24 L 833.54 890.07 L 829.17 886.91 L 826.62 885.78 L 815.71 882.25 L 810.01 880.99 L 804.31 880.23 L 798.48 879.98 L 792.78 880.23 L 787.08 881.12 L 781.63 882.63 L 776.17 884.90 Z M 516.00 978.81 L 516.73 1006.92 L 518.06 1019.65 L 519.16 1021.54 L 520.25 1022.04 L 526.55 1024.69 L 532.98 1026.71 L 539.53 1028.22 L 553.00 1029.35 L 559.91 1029.35 L 570.10 1028.60 L 580.04 1027.21 L 593.87 1023.81 L 600.66 1021.66 L 607.33 1018.89 L 609.15 1017.76 L 610.73 1016.24 L 612.79 1012.34 L 618.37 994.18 L 621.89 980.07 L 601.75 985.74 L 594.96 986.87 L 577.25 987.88 L 568.40 987.63 L 550.81 985.99 L 528.86 981.96 L 516.00 978.81 Z M 313.21 979.69 L 322.43 1010.82 L 324.85 1017.13 L 325.94 1018.89 L 327.52 1020.40 L 338.19 1024.69 L 347.05 1027.08 L 356.14 1028.85 L 365.24 1029.86 L 374.46 1030.11 L 383.80 1029.61 L 396.17 1027.59 L 402.11 1025.82 L 407.93 1023.68 L 413.39 1020.91 L 418.73 1017.38 L 418.97 980.07 L 407.33 983.09 L 395.68 985.23 L 383.80 986.87 L 371.91 987.63 L 360.02 987.76 L 348.14 987.00 L 339.28 985.99 L 330.55 984.35 L 321.82 982.34 L 313.21 979.69 Z" fill="#030202" fill-rule="nonzero" group-id="2,8" node-id="164" stroke="none" target-height="1020.9003" target-width="835.4397" target-x="91.49048" target-y="20.049759"></path><path d="M 340.86 214.55 L 347.05 212.91 L 353.35 212.03 L 359.66 211.78 L 366.09 212.15 L 372.28 213.16 L 378.46 214.80 L 384.53 217.07 L 390.23 219.84 L 395.68 223.25 L 397.50 224.63 L 399.57 227.41 L 399.93 228.79 L 399.69 231.82 L 397.99 233.84 L 394.59 236.23 L 389.38 232.70 L 383.80 229.55 L 377.98 227.03 L 372.03 225.01 L 365.85 223.88 L 355.66 223.50 L 337.22 225.64 L 335.77 222.11 L 335.40 218.33 L 338.80 215.43 L 340.86 214.55 Z" fill="#030202" fill-rule="nonzero" group-id="2,9" node-id="169" stroke="none" target-height="24.454208" target-width="64.52585" target-x="335.4031" target-y="211.77594"></path><path d="M 294.65 275.56 L 301.81 275.18 L 310.66 290.94 L 316.00 287.79 L 321.58 285.14 L 325.58 283.75 L 333.58 281.99 L 337.59 281.74 L 341.71 282.11 L 345.83 282.87 L 350.81 284.13 L 355.42 285.89 L 359.78 288.16 L 363.91 290.94 L 367.67 294.21 L 374.46 301.65 L 377.25 305.81 L 380.52 311.86 L 383.19 318.16 L 385.01 324.72 L 383.68 326.99 L 381.86 328.88 L 378.82 330.01 L 377.01 329.89 L 375.19 327.87 L 373.97 325.60 L 370.09 315.90 L 367.54 311.48 L 364.63 307.45 L 361.36 303.67 L 357.60 300.52 L 353.35 297.74 L 349.11 295.73 L 344.50 294.34 L 339.77 293.58 L 335.04 293.58 L 330.43 294.34 L 325.82 295.73 L 323.27 297.11 L 316.24 302.53 L 311.27 305.43 L 309.08 305.05 L 307.14 304.05 L 303.87 301.02 L 301.32 297.37 L 297.32 290.56 L 295.74 287.03 L 294.16 280.85 L 294.65 275.56 Z" fill="#030202" fill-rule="nonzero" group-id="2,10" node-id="174" stroke="none" target-height="54.832886" target-width="90.84558" target-x="294.16483" target-y="275.1804"></path><path d="M 571.55 334.30 L 579.92 333.54 L 584.05 333.79 L 588.17 334.80 L 591.93 336.32 L 595.57 338.58 L 598.96 341.61 L 604.91 348.54 L 609.27 356.61 L 612.06 365.43 L 613.03 374.64 L 613.03 380.43 L 612.55 386.11 L 611.46 391.78 L 609.88 397.20 L 607.82 402.62 L 605.27 407.66 L 602.36 412.58 L 599.09 417.12 L 595.33 421.28 L 591.20 425.18 L 586.71 428.46 L 581.86 431.23 L 574.59 434.01 L 566.94 435.14 L 559.18 434.51 L 555.54 433.50 L 552.03 431.86 L 548.63 429.85 L 544.87 426.57 L 541.59 422.91 L 538.68 418.88 L 536.38 414.47 L 534.44 409.93 L 532.26 400.10 L 531.41 389.89 L 532.13 379.68 L 534.44 369.85 L 536.26 365.06 L 541.11 356.36 L 547.17 348.80 L 554.33 342.24 L 562.58 337.32 L 566.94 335.56 L 571.55 334.30 Z M 583.44 352.32 L 581.50 353.59 L 580.04 355.22 L 579.07 357.37 L 578.59 359.76 L 578.71 362.03 L 579.32 364.30 L 580.41 366.32 L 582.11 367.70 L 586.84 368.33 L 589.75 367.32 L 592.17 365.18 L 593.75 362.03 L 594.11 359.38 L 593.75 356.74 L 592.05 353.84 L 588.90 351.95 L 587.08 351.44 L 585.14 351.57 L 583.44 352.32 Z M 539.90 379.80 L 538.93 382.20 L 538.56 384.59 L 539.05 387.75 L 539.90 389.38 L 546.81 388.88 L 546.93 384.59 L 546.81 380.18 L 539.90 379.80 Z" fill="#030202" fill-rule="nonzero" group-id="2,11" node-id="179" stroke="none" target-height="101.59842" target-width="81.627625" target-x="531.4062" target-y="333.5428"></path><path d="M 291.38 399.22 L 294.77 398.33 L 298.29 398.21 L 301.81 398.71 L 305.20 399.85 L 308.36 401.49 L 311.27 403.50 L 314.91 407.16 L 318.06 411.19 L 320.61 415.73 L 322.55 420.65 L 324.00 425.56 L 324.97 430.73 L 325.34 436.15 L 324.37 445.48 L 322.18 452.41 L 320.48 455.69 L 316.00 461.36 L 311.39 464.76 L 305.93 466.65 L 300.23 466.91 L 297.44 466.40 L 292.22 464.39 L 288.83 461.99 L 285.80 459.22 L 283.25 456.19 L 279.25 449.13 L 277.79 445.23 L 275.85 437.16 L 275.49 433.00 L 275.49 426.70 L 276.21 420.65 L 277.31 416.11 L 278.88 411.82 L 281.19 407.79 L 283.98 404.26 L 288.59 400.60 L 291.38 399.22 Z M 295.74 411.07 L 293.56 411.95 L 290.28 414.85 L 288.59 417.75 L 287.25 420.90 L 286.04 427.70 L 285.80 432.87 L 286.16 438.04 L 287.01 443.08 L 288.46 448.12 L 290.40 452.79 L 293.19 457.07 L 294.65 458.84 L 298.41 461.11 L 300.59 461.61 L 302.78 461.49 L 304.96 460.73 L 307.63 458.97 L 309.93 456.57 L 311.63 453.92 L 313.09 450.90 L 314.54 444.47 L 314.91 439.30 L 314.66 434.13 L 313.81 429.09 L 312.24 424.17 L 309.08 418.25 L 307.02 415.48 L 303.75 412.58 L 301.93 411.57 L 299.87 410.81 L 297.80 410.56 L 295.74 411.07 Z" fill="#030202" fill-rule="nonzero" group-id="2,12" node-id="184" stroke="none" target-height="68.6987" target-width="49.849854" target-x="275.48633" target-y="398.2077"></path><path d="M 440.44 451.65 L 444.08 450.52 L 447.96 450.27 L 451.84 450.77 L 455.48 451.91 L 459.85 454.55 L 463.61 458.59 L 464.94 460.86 L 466.03 463.38 L 466.88 467.54 L 467.12 471.70 L 467.12 476.36 L 466.52 481.02 L 465.30 485.44 L 461.67 493.88 L 459.12 497.79 L 453.17 504.85 L 449.78 507.87 L 446.14 510.52 L 442.02 512.66 L 437.77 514.05 L 433.40 514.81 L 430.37 514.68 L 424.55 513.29 L 421.76 511.91 L 419.21 510.02 L 415.09 505.23 L 412.42 499.43 L 411.33 493.13 L 411.33 489.97 L 412.30 484.30 L 413.88 478.76 L 416.06 473.46 L 418.85 468.55 L 422.25 464.01 L 426.13 459.97 L 429.28 457.33 L 436.44 453.17 L 440.44 451.65 Z M 443.23 462.87 L 439.47 464.64 L 435.95 466.78 L 432.80 469.55 L 428.67 474.22 L 423.22 482.54 L 420.06 489.34 L 419.09 493.00 L 418.61 496.65 L 418.85 500.44 L 419.58 502.96 L 421.03 505.23 L 423.10 506.99 L 425.40 508.13 L 428.80 508.50 L 430.49 508.13 L 434.25 506.87 L 437.65 505.10 L 440.80 502.83 L 446.38 497.41 L 451.84 488.97 L 455.24 480.77 L 456.33 474.72 L 456.21 471.70 L 454.99 467.91 L 453.78 466.15 L 452.45 464.64 L 449.05 462.62 L 445.17 462.37 L 443.23 462.87 Z" fill="#030202" fill-rule="nonzero" group-id="2,13" node-id="189" stroke="none" target-height="64.53894" target-width="55.79303" target-x="411.33005" target-y="450.26746"></path><path d="M 409.15 41.10 L 414.00 37.19 L 419.21 33.92 L 422.97 32.28 L 426.86 31.14 L 430.86 30.64 L 427.58 47.03 L 427.22 57.87 L 427.58 68.58 L 426.49 65.05 L 425.88 61.40 L 425.52 46.39 L 424.07 53.33 L 423.22 60.13 L 422.97 67.07 L 424.55 92.40 L 424.43 110.81 L 424.19 112.57 L 423.46 114.21 L 421.15 116.98 L 409.03 121.27 L 397.26 126.19 L 385.62 131.86 L 384.53 125.05 L 383.31 111.56 L 383.80 91.02 L 386.71 78.66 L 391.07 66.69 L 397.02 55.47 L 400.66 50.30 L 404.66 45.51 L 409.15 41.10 Z" fill="#f1bdaf" fill-rule="nonzero" group-id="3,14" node-id="197" stroke="none" target-height="101.220276" target-width="47.54535" target-x="383.31226" target-y="30.63838"></path><path d="M 230.97 71.10 L 236.43 68.20 L 239.34 67.32 L 248.56 66.19 L 251.71 67.70 L 254.50 69.59 L 256.81 71.98 L 259.72 76.14 L 262.14 80.93 L 265.90 90.64 L 274.52 125.05 L 277.18 133.50 L 280.22 141.69 L 285.31 152.15 L 292.47 162.87 L 296.83 168.04 L 301.81 172.83 L 307.14 177.11 L 318.54 184.42 L 314.42 188.33 L 303.02 200.81 L 297.56 199.93 L 287.01 196.65 L 277.06 191.86 L 272.21 188.96 L 265.42 184.17 L 259.11 178.75 L 253.29 172.70 L 248.07 166.40 L 243.34 159.46 L 239.22 152.28 L 235.70 144.72 L 232.67 136.90 L 230.25 128.83 L 228.43 120.64 L 226.49 105.39 L 226.12 98.33 L 226.12 91.27 L 226.97 84.34 L 227.82 79.80 L 230.97 71.10 Z" fill="#f1bdaf" fill-rule="nonzero" group-id="3,15" node-id="202" stroke="none" target-height="134.62422" target-width="92.42233" target-x="226.12164" target-y="66.185165"></path><path d="M 687.51 113.33 L 691.99 99.34 L 694.66 92.66 L 698.18 94.80 L 701.21 97.32 L 704.00 100.22 L 707.52 105.14 L 710.43 110.56 L 712.85 116.23 L 714.92 122.03 L 716.98 130.22 L 717.71 134.38 L 718.07 143.20 L 717.95 147.87 L 716.25 156.82 L 714.92 161.23 L 710.43 172.32 L 703.76 185.81 L 699.76 191.86 L 696.60 195.52 L 693.08 198.79 L 689.08 201.69 L 685.44 203.58 L 681.68 204.84 L 673.80 205.85 L 666.28 195.77 L 658.40 186.06 L 641.54 167.53 L 654.39 158.20 L 660.46 152.91 L 666.16 147.24 L 671.37 141.19 L 676.23 134.76 L 680.59 127.95 L 684.35 120.77 L 687.51 113.33 Z" fill="#f1bdaf" fill-rule="nonzero" group-id="3,16" node-id="207" stroke="none" target-height="113.19527" target-width="76.53345" target-x="641.5367" target-y="92.65625"></path><path d="M 838.15 233.58 L 844.70 227.78 L 851.97 223.12 L 855.98 221.48 L 860.22 220.60 L 864.22 220.35 L 867.98 220.73 L 871.62 221.73 L 878.66 225.01 L 881.81 227.41 L 886.30 231.44 L 889.94 235.85 L 890.30 239.26 L 889.45 245.68 L 886.30 255.14 L 882.05 264.09 L 877.20 272.53 L 871.62 280.60 L 865.44 288.29 L 858.77 295.47 L 851.61 302.03 L 843.97 308.08 L 835.96 313.50 L 827.72 318.42 L 820.32 321.69 L 812.68 324.47 L 804.79 326.61 L 796.67 327.87 L 788.66 328.50 L 780.66 328.25 L 774.59 327.49 L 768.77 326.36 L 762.95 324.47 L 757.25 322.20 L 752.52 319.68 L 748.15 316.53 L 744.15 313.00 L 733.47 301.02 L 750.33 297.62 L 758.58 295.35 L 766.71 292.58 L 777.26 287.79 L 789.39 280.35 L 796.18 275.31 L 802.49 269.89 L 811.71 261.19 L 838.15 233.58 Z" fill="#f1bdaf" fill-rule="nonzero" group-id="3,17" node-id="212" stroke="none" target-height="108.15315" target-width="156.82684" target-x="733.47375" target-y="220.34755"></path><path d="M 263.24 369.34 L 274.15 366.69 L 285.19 364.80 L 296.23 363.67 L 307.39 363.17 L 318.54 363.17 L 329.70 363.80 L 340.74 364.93 L 362.81 368.59 L 375.79 371.48 L 401.51 378.92 L 414.12 383.21 L 438.98 393.29 L 463.00 405.14 L 473.55 411.19 L 483.86 417.75 L 493.93 424.80 L 503.51 432.24 L 512.85 440.31 L 521.58 448.88 L 528.86 456.57 L 535.65 464.76 L 542.08 473.21 L 547.90 482.16 L 553.24 491.49 L 558.09 501.07 L 562.21 510.90 L 565.73 520.98 L 568.64 531.45 L 570.22 538.25 L 571.31 545.19 L 571.92 552.24 L 572.16 562.83 L 571.80 573.42 L 570.70 581.11 L 568.88 588.67 L 566.58 596.24 L 563.55 603.42 L 560.03 610.35 L 555.91 616.91 L 551.18 623.09 L 545.96 628.63 L 540.14 633.67 L 534.07 637.96 L 527.89 641.62 L 521.34 644.89 L 507.88 649.93 L 490.29 654.47 L 475.37 657.12 L 454.39 658.51 L 447.72 658.76 L 441.17 658.51 L 428.19 657.37 L 415.21 655.48 L 402.35 652.83 L 389.74 649.68 L 377.13 645.90 L 364.88 641.36 L 352.75 636.32 L 345.23 632.41 L 330.67 623.72 L 324.00 618.67 L 346.44 613.51 L 372.15 608.84 L 377.49 608.59 L 381.61 609.72 L 395.81 616.40 L 410.24 622.58 L 424.91 628.00 L 439.83 632.92 L 443.59 633.80 L 450.51 634.81 L 455.60 634.05 L 458.03 633.17 L 460.09 631.53 L 461.91 629.26 L 462.64 626.87 L 462.88 621.70 L 462.27 619.18 L 460.57 616.40 L 454.39 612.12 L 449.29 609.60 L 427.83 601.78 L 455.24 601.53 L 468.82 600.52 L 471.49 599.89 L 473.79 598.51 L 475.73 596.49 L 477.19 594.22 L 478.04 591.57 L 478.04 587.16 L 476.46 583.76 L 474.52 581.36 L 472.10 579.72 L 469.43 578.46 L 461.18 575.31 L 473.19 572.29 L 476.95 570.77 L 481.44 567.75 L 484.71 564.35 L 485.44 562.71 L 485.92 560.94 L 485.92 558.29 L 485.20 555.52 L 475.49 561.57 L 468.70 563.97 L 459.12 565.23 L 444.44 564.60 L 451.60 558.29 L 454.75 554.64 L 457.42 550.73 L 458.75 547.83 L 459.72 544.81 L 460.09 541.40 L 452.33 550.10 L 446.38 554.89 L 437.77 559.43 L 432.43 561.70 L 426.98 563.34 L 418.73 565.23 L 410.12 566.49 L 393.02 567.75 L 378.58 567.12 L 354.57 564.72 L 335.65 561.19 L 311.15 555.14 L 299.02 551.49 L 287.01 547.33 L 275.24 542.54 L 263.84 537.12 L 255.47 532.71 L 247.35 527.66 L 239.58 522.24 L 231.94 516.19 L 226.36 511.28 L 221.27 505.86 L 216.66 499.93 L 212.42 493.76 L 208.78 487.20 L 205.50 480.39 L 202.83 473.34 L 200.65 466.02 L 199.07 458.59 L 197.98 447.37 L 198.47 435.90 L 200.77 424.80 L 202.59 419.38 L 204.90 414.34 L 207.69 409.43 L 212.17 402.75 L 217.15 396.82 L 222.73 391.40 L 228.79 386.48 L 235.10 382.07 L 241.89 378.17 L 248.92 374.64 L 263.24 369.34 Z M 331.28 372.62 L 339.04 375.90 L 352.02 378.92 L 365.00 382.45 L 377.73 386.48 L 396.65 393.29 L 452.81 415.48 L 445.29 407.41 L 441.17 403.75 L 429.28 395.56 L 421.40 391.27 L 413.39 387.49 L 405.02 384.22 L 387.92 379.17 L 374.82 376.40 L 361.72 374.13 L 346.56 372.62 L 338.92 372.24 L 331.28 372.62 Z M 291.38 399.22 L 288.59 400.60 L 283.98 404.26 L 281.19 407.79 L 278.88 411.82 L 277.31 416.11 L 276.21 420.65 L 275.49 426.70 L 275.49 433.00 L 276.70 441.19 L 279.25 449.13 L 281.07 452.79 L 285.80 459.22 L 288.83 461.99 L 292.22 464.39 L 297.44 466.40 L 303.14 467.03 L 308.72 465.90 L 313.81 463.25 L 316.00 461.36 L 318.42 458.71 L 322.18 452.41 L 324.37 445.48 L 324.97 441.82 L 325.34 436.15 L 324.97 430.73 L 324.00 425.56 L 322.55 420.65 L 320.61 415.73 L 318.06 411.19 L 314.91 407.16 L 311.27 403.50 L 308.36 401.49 L 305.20 399.85 L 301.81 398.71 L 298.29 398.21 L 294.77 398.33 L 291.38 399.22 Z M 440.44 451.65 L 436.44 453.17 L 429.28 457.33 L 426.13 459.97 L 422.25 464.01 L 418.85 468.55 L 416.06 473.46 L 413.88 478.76 L 412.30 484.30 L 411.33 489.97 L 411.69 496.28 L 413.63 502.45 L 417.03 507.87 L 419.21 510.02 L 421.76 511.91 L 427.46 514.30 L 433.40 514.81 L 437.77 514.05 L 442.02 512.66 L 446.14 510.52 L 449.78 507.87 L 456.33 501.57 L 461.67 493.88 L 463.73 489.85 L 465.30 485.44 L 466.52 481.02 L 467.12 476.36 L 466.88 467.54 L 466.03 463.38 L 463.61 458.59 L 459.85 454.55 L 455.48 451.91 L 451.84 450.77 L 447.96 450.27 L 444.08 450.52 L 440.44 451.65 Z" fill="#f1bdaf" fill-rule="nonzero" group-id="3,18" node-id="217" stroke="none" target-height="295.5934" target-width="374.17706" target-x="197.9825" target-y="363.16513"></path><path d="M 423.34 74.00 L 422.97 67.07 L 423.22 60.13 L 424.07 53.33 L 425.52 46.39 L 425.88 61.40 L 426.49 65.05 L 435.59 91.14 L 438.50 97.57 L 445.17 109.80 L 437.41 112.82 L 429.40 115.22 L 421.15 116.98 L 423.46 114.21 L 424.19 112.57 L 424.43 110.81 L 424.55 92.40 L 424.19 83.20 L 423.34 74.00 Z" fill="#373536" fill-rule="nonzero" group-id="4,19" node-id="225" stroke="none" target-height="70.58948" target-width="24.015259" target-x="421.15448" target-y="46.39496"></path><path d="M 262.14 58.50 L 267.48 61.40 L 272.45 64.67 L 277.18 68.33 L 283.73 74.63 L 289.80 81.44 L 295.50 88.62 L 319.03 121.40 L 323.88 127.45 L 329.34 132.99 L 332.73 136.27 L 339.28 140.68 L 342.07 141.94 L 346.93 143.08 L 351.17 147.11 L 355.17 151.52 L 330.92 171.82 L 325.82 174.97 L 323.27 174.46 L 320.97 173.33 L 316.60 170.56 L 306.90 162.11 L 302.53 157.45 L 298.53 152.41 L 295.14 146.98 L 292.22 141.19 L 289.07 134.00 L 286.52 126.56 L 278.76 96.06 L 274.03 81.06 L 270.51 73.37 L 262.14 58.50 Z" fill="#373536" fill-rule="nonzero" group-id="4,20" node-id="230" stroke="none" target-height="116.47264" target-width="93.02878" target-x="262.14453" target-y="58.495983"></path><path d="M 464.21 118.12 L 473.19 116.98 L 493.32 116.73 L 500.72 117.49 L 504.36 118.75 L 496.11 118.88 L 501.93 122.40 L 508.00 125.30 L 514.18 127.82 L 539.90 135.77 L 553.00 141.06 L 559.55 144.46 L 565.85 148.37 L 572.04 152.66 L 577.74 157.45 L 583.20 162.74 L 600.42 148.50 L 619.34 161.99 L 631.11 172.07 L 636.56 177.62 L 644.57 186.31 L 652.21 195.14 L 659.37 204.46 L 669.68 218.83 L 679.50 233.46 L 688.11 230.68 L 696.60 227.15 L 704.61 247.20 L 709.82 246.69 L 714.92 245.56 L 729.96 241.02 L 735.05 240.14 L 731.29 242.15 L 738.20 241.90 L 751.79 240.01 L 758.46 238.50 L 771.56 233.96 L 817.04 214.55 L 824.44 212.28 L 831.96 210.64 L 839.72 209.51 L 847.61 208.88 L 855.37 208.88 L 863.01 209.38 L 870.77 210.39 L 856.58 210.77 L 851.85 211.40 L 848.82 212.53 L 843.12 215.68 L 835.48 221.73 L 828.93 227.78 L 804.06 253.75 L 797.64 259.93 L 790.84 265.73 L 783.69 271.02 L 777.50 275.05 L 770.95 278.58 L 764.28 281.61 L 750.33 286.40 L 743.18 288.16 L 726.92 290.18 L 721.59 291.32 L 718.80 292.95 L 715.16 298.63 L 732.87 318.92 L 734.44 321.69 L 735.41 324.72 L 736.63 337.32 L 738.20 378.04 L 735.90 421.28 L 732.75 442.33 L 730.20 456.19 L 727.17 470.06 L 723.65 483.67 L 719.53 497.16 L 711.64 518.71 L 708.12 526.78 L 704.24 534.72 L 691.75 558.04 L 674.77 553.88 L 667.01 551.24 L 662.64 549.09 L 658.64 546.32 L 654.88 543.29 L 651.60 539.76 L 648.21 531.82 L 647.12 527.66 L 646.51 523.38 L 646.99 518.59 L 647.96 513.80 L 650.75 504.60 L 639.35 504.72 L 627.83 504.34 L 607.82 502.20 L 590.96 498.55 L 582.59 496.02 L 565.12 489.34 L 565.85 491.23 L 552.75 469.43 L 546.08 460.10 L 538.80 451.28 L 531.16 442.83 L 523.04 434.76 L 514.55 427.20 L 498.66 414.34 L 499.51 379.80 L 501.45 356.86 L 505.94 329.64 L 509.21 313.75 L 513.09 298.00 L 517.58 282.49 L 522.79 267.11 L 528.50 251.99 L 533.35 240.89 L 544.02 219.34 L 556.27 198.67 L 563.06 188.83 L 570.34 179.25 L 577.98 169.93 L 564.52 171.82 L 557.85 173.20 L 551.30 175.22 L 547.90 176.73 L 541.96 180.77 L 529.95 192.11 L 525.71 195.52 L 521.95 198.04 L 518.06 199.93 L 513.94 201.19 L 509.57 201.94 L 505.21 201.94 L 500.84 201.44 L 496.72 200.31 L 492.71 198.41 L 488.95 196.02 L 485.07 191.61 L 481.92 184.80 L 480.71 180.39 L 479.25 171.44 L 477.19 144.21 L 476.22 135.14 L 473.92 123.29 L 472.22 117.36 L 464.21 118.12 Z M 571.55 334.30 L 566.94 335.56 L 562.58 337.32 L 554.33 342.24 L 547.17 348.80 L 541.11 356.36 L 536.26 365.06 L 534.44 369.85 L 532.13 379.68 L 531.41 389.89 L 532.26 400.10 L 534.44 409.93 L 536.38 414.47 L 538.68 418.88 L 541.59 422.91 L 544.87 426.57 L 548.63 429.85 L 552.03 431.86 L 555.54 433.50 L 563.06 435.14 L 570.83 434.89 L 578.35 432.87 L 581.86 431.23 L 586.71 428.46 L 591.20 425.18 L 595.33 421.28 L 599.09 417.12 L 602.36 412.58 L 605.27 407.66 L 607.82 402.62 L 609.88 397.20 L 611.46 391.78 L 612.55 386.11 L 613.03 380.43 L 612.79 369.97 L 610.85 361.02 L 607.21 352.45 L 602.12 344.89 L 595.57 338.58 L 591.93 336.32 L 588.17 334.80 L 584.05 333.79 L 579.92 333.54 L 571.55 334.30 Z" fill="#373536" fill-rule="nonzero" group-id="4,21" node-id="235" stroke="none" target-height="441.3103" target-width="406.56128" target-x="464.2119" target-y="116.73224"></path><path d="M 717.95 138.54 L 719.53 138.29 L 720.13 145.85 L 720.25 153.29 L 719.77 160.85 L 718.80 168.41 L 717.22 175.72 L 715.04 182.91 L 712.37 189.97 L 709.09 196.78 L 705.33 203.20 L 702.55 207.24 L 699.51 210.89 L 696.00 214.30 L 692.11 217.20 L 687.99 219.47 L 683.62 221.36 L 678.41 213.79 L 673.80 205.85 L 681.68 204.84 L 685.44 203.58 L 689.08 201.69 L 693.08 198.79 L 696.60 195.52 L 699.76 191.86 L 703.76 185.81 L 710.43 172.32 L 714.92 161.23 L 716.25 156.82 L 717.95 147.87 L 717.95 138.54 Z" fill="#373536" fill-rule="nonzero" group-id="4,22" node-id="240" stroke="none" target-height="83.068695" target-width="46.453735" target-x="673.79956" target-y="138.28728"></path><path d="M 401.02 149.51 L 403.45 149.63 L 407.69 151.65 L 413.15 156.56 L 420.55 164.76 L 424.55 170.93 L 425.88 174.34 L 424.19 176.86 L 419.70 180.89 L 415.82 183.16 L 407.21 186.19 L 402.96 187.32 L 395.56 187.70 L 393.14 187.32 L 390.47 185.81 L 389.38 184.42 L 388.89 180.26 L 389.13 176.10 L 389.98 172.07 L 391.20 168.04 L 397.26 154.55 L 398.96 151.90 L 401.02 149.51 Z" fill="#373536" fill-rule="nonzero" group-id="4,23" node-id="245" stroke="none" target-height="38.19394" target-width="36.993195" target-x="388.89157" target-y="149.50597"></path><path d="M 248.32 316.78 L 250.74 312.49 L 259.35 294.59 L 261.90 290.31 L 260.57 293.71 L 265.06 298.00 L 269.30 302.66 L 271.85 306.06 L 275.73 313.50 L 276.94 317.41 L 277.43 321.57 L 277.18 327.87 L 275.61 331.15 L 273.67 333.04 L 271.24 334.68 L 266.15 336.82 L 256.81 339.34 L 247.35 341.23 L 228.18 344.26 L 231.22 339.47 L 245.16 321.57 L 248.32 316.78 Z" fill="#373536" fill-rule="nonzero" group-id="4,24" node-id="250" stroke="none" target-height="53.95053" target-width="49.243393" target-x="228.18361" target-y="290.3067"></path><path d="M 295.74 411.07 L 297.80 410.56 L 299.87 410.81 L 301.93 411.57 L 305.44 413.96 L 309.08 418.25 L 310.90 421.02 L 312.24 424.17 L 313.81 429.09 L 314.66 434.13 L 314.91 439.30 L 314.06 447.75 L 311.63 453.92 L 309.93 456.57 L 307.63 458.97 L 304.96 460.73 L 302.78 461.49 L 300.59 461.61 L 298.41 461.11 L 294.65 458.84 L 293.19 457.07 L 290.40 452.79 L 288.46 448.12 L 287.01 443.08 L 286.16 438.04 L 285.80 432.87 L 286.04 427.70 L 287.25 420.90 L 288.59 417.75 L 290.28 414.85 L 293.56 411.95 L 295.74 411.07 Z" fill="#373536" fill-rule="nonzero" group-id="4,25" node-id="255" stroke="none" target-height="51.05133" target-width="29.109406" target-x="285.79587" target-y="410.5609"></path><path d="M 443.23 462.87 L 445.17 462.37 L 449.05 462.62 L 452.45 464.64 L 453.78 466.15 L 454.99 467.91 L 456.21 471.70 L 456.33 474.72 L 455.96 477.75 L 454.27 483.67 L 451.84 488.97 L 446.38 497.41 L 440.80 502.83 L 437.65 505.10 L 434.25 506.87 L 430.49 508.13 L 427.10 508.50 L 423.10 506.99 L 421.03 505.23 L 419.58 502.96 L 418.85 500.44 L 418.61 496.65 L 419.09 493.00 L 420.06 489.34 L 423.22 482.54 L 428.67 474.22 L 432.80 469.55 L 435.95 466.78 L 439.47 464.64 L 443.23 462.87 Z" fill="#373536" fill-rule="nonzero" group-id="4,26" node-id="260" stroke="none" target-height="46.135254" target-width="37.720917" target-x="418.60742" target-y="462.36853"></path><path d="M 171.78 526.28 L 178.09 526.66 L 184.28 527.54 L 195.80 530.18 L 241.40 542.16 L 263.96 549.09 L 282.89 556.28 L 307.14 563.84 L 293.44 563.97 L 256.93 560.19 L 238.98 556.53 L 225.76 552.87 L 203.80 545.69 L 186.58 538.50 L 176.27 532.58 L 174.57 530.69 L 171.78 526.28 Z" fill="#373536" fill-rule="nonzero" group-id="4,27" node-id="265" stroke="none" target-height="37.68976" target-width="135.35872" target-x="171.78416" target-y="526.27716"></path><path d="M 630.38 555.27 L 635.71 556.91 L 643.48 565.23 L 645.66 568.25 L 647.60 571.53 L 649.06 575.06 L 649.30 577.08 L 648.69 580.61 L 647.48 583.13 L 643.60 587.16 L 636.81 590.82 L 632.08 592.45 L 628.80 593.09 L 622.37 593.34 L 620.68 592.83 L 618.49 590.94 L 617.52 589.05 L 616.92 586.78 L 616.55 577.08 L 624.56 569.14 L 626.74 565.98 L 630.38 555.27 Z" fill="#373536" fill-rule="nonzero" group-id="4,28" node-id="270" stroke="none" target-height="38.067932" target-width="32.748108" target-x="616.55115" target-y="555.2693"></path><path d="M 99.86 556.91 L 132.97 559.30 L 165.96 562.71 L 205.50 566.11 L 216.18 566.24 L 224.67 564.60 L 230.61 564.35 L 292.35 569.39 L 341.83 574.18 L 357.72 575.31 L 389.38 576.07 L 443.11 575.56 L 446.26 575.82 L 449.17 576.57 L 452.57 578.84 L 453.90 580.61 L 438.14 582.37 L 406.24 584.01 L 374.09 584.51 L 332.49 583.88 L 303.99 584.26 L 219.57 580.35 L 191.43 578.21 L 172.75 576.45 L 135.52 571.28 L 120.60 568.25 L 113.20 566.36 L 106.05 563.84 L 103.98 562.71 L 102.41 560.94 L 99.86 556.91 Z" fill="#373536" fill-rule="nonzero" group-id="4,29" node-id="275" stroke="none" target-height="27.60553" target-width="354.04303" target-x="99.85961" target-y="556.90796"></path><path d="M 440.44 587.41 L 455.48 586.28 L 463.73 586.78 L 470.16 588.67 L 466.27 591.70 L 464.09 592.83 L 461.67 593.21 L 437.53 594.09 L 384.16 599.89 L 361.48 603.04 L 338.92 606.70 L 326.43 609.09 L 314.30 612.12 L 302.17 615.77 L 290.28 619.81 L 274.64 626.11 L 259.35 632.92 L 244.19 640.48 L 214.60 656.99 L 177.00 679.56 L 184.03 670.73 L 191.92 658.63 L 193.98 656.49 L 198.95 653.09 L 216.30 641.87 L 229.03 634.68 L 242.01 627.88 L 255.23 621.83 L 268.69 616.28 L 282.40 611.36 L 293.80 607.46 L 316.85 600.77 L 340.25 595.86 L 352.14 594.09 L 366.82 592.08 L 381.49 590.69 L 440.44 587.41 Z" fill="#373536" fill-rule="nonzero" group-id="4,30" node-id="280" stroke="none" target-height="93.27899" target-width="293.15588" target-x="176.99947" target-y="586.27826"></path><path d="M 304.11 590.06 L 317.45 588.67 L 330.92 587.92 L 337.59 588.04 L 344.26 588.93 L 338.31 591.07 L 320.00 594.72 L 307.75 597.62 L 271.85 607.08 L 247.95 612.25 L 207.81 622.46 L 159.41 633.80 L 154.32 634.56 L 147.41 634.68 L 145.95 633.93 L 143.65 631.41 L 153.35 628.51 L 171.42 622.08 L 202.47 613.51 L 246.86 602.92 L 256.20 599.89 L 253.05 599.77 L 258.14 597.12 L 282.52 592.96 L 304.11 590.06 Z" fill="#373536" fill-rule="nonzero" group-id="4,31" node-id="285" stroke="none" target-height="46.765564" target-width="200.61226" target-x="143.64503" target-y="587.91693"></path><path d="M 391.07 605.56 L 404.17 604.43 L 411.33 605.06 L 413.88 606.07 L 416.42 607.71 L 410.36 607.71 L 447.23 620.94 L 453.90 623.97 L 449.29 625.86 L 447.60 625.98 L 440.92 624.85 L 434.38 622.96 L 400.90 610.61 L 391.07 605.56 Z" fill="#373536" fill-rule="nonzero" group-id="4,32" node-id="290" stroke="none" target-height="21.555054" target-width="62.82779" target-x="391.07483" target-y="604.42975"></path><path d="M 584.65 651.07 L 599.33 645.27 L 627.59 631.53 L 634.99 642.62 L 641.90 654.09 L 655.00 677.41 L 667.74 703.76 L 671.13 712.96 L 668.34 715.23 L 663.61 720.52 L 658.15 729.73 L 650.88 744.35 L 648.21 749.01 L 646.63 750.78 L 644.93 752.16 L 642.99 752.92 L 638.75 753.17 L 634.50 751.91 L 630.98 749.26 L 628.92 746.24 L 627.22 743.09 L 621.65 729.73 L 619.83 726.57 L 617.52 723.80 L 615.46 722.29 L 613.16 721.41 L 610.73 721.15 L 600.30 721.28 L 597.63 720.78 L 592.41 718.76 L 590.23 716.99 L 588.29 714.85 L 586.47 711.57 L 585.38 707.92 L 585.02 704.14 L 585.26 700.36 L 585.99 696.70 L 589.02 689.77 L 597.75 677.54 L 599.57 674.26 L 599.93 672.37 L 599.21 669.09 L 597.99 666.83 L 588.53 656.11 L 584.65 651.07 Z" fill="#373536" fill-rule="nonzero" group-id="4,33" node-id="295" stroke="none" target-height="121.64081" target-width="86.47919" target-x="584.6521" target-y="631.53107"></path><path d="M 312.12 645.90 L 318.18 650.19 L 324.73 656.49 L 330.19 664.05 L 338.19 677.92 L 343.04 683.59 L 346.08 685.73 L 348.87 686.99 L 354.69 688.00 L 368.15 687.50 L 375.55 688.13 L 381.13 690.40 L 383.31 692.16 L 386.59 696.45 L 388.16 700.36 L 389.01 704.52 L 389.13 712.96 L 383.43 773.09 L 382.71 778.13 L 380.40 786.20 L 377.25 792.12 L 375.31 794.39 L 373.12 796.16 L 370.70 797.42 L 365.36 798.68 L 362.57 798.80 L 358.33 798.30 L 354.32 797.04 L 347.17 793.26 L 339.28 786.83 L 325.82 774.10 L 319.27 769.43 L 315.63 767.54 L 311.99 766.79 L 304.72 766.41 L 299.26 767.16 L 293.80 768.30 L 283.25 771.32 L 284.70 755.19 L 286.77 739.18 L 289.56 723.30 L 292.95 707.54 L 297.08 691.78 L 301.56 676.28 L 306.54 661.03 L 312.12 645.90 Z" fill="#373536" fill-rule="nonzero" group-id="4,34" node-id="300" stroke="none" target-height="152.90186" target-width="105.88544" target-x="283.2488" target-y="645.9011"></path><path d="M 875.26 697.33 L 878.29 693.68 L 881.93 690.78 L 879.63 698.34 L 875.14 706.78 L 862.40 726.20 L 859.74 731.36 L 862.40 731.74 L 864.95 731.36 L 867.38 730.36 L 869.44 728.72 L 895.76 708.68 L 905.46 699.35 L 912.50 693.68 L 909.22 702.88 L 905.34 711.95 L 901.10 720.78 L 896.37 729.22 L 891.03 737.42 L 885.21 745.10 L 872.59 760.74 L 869.80 764.89 L 867.38 769.43 L 871.02 768.17 L 877.57 764.39 L 881.93 760.74 L 894.06 748.26 L 901.34 739.43 L 913.83 720.27 L 913.47 727.33 L 912.38 734.26 L 910.56 741.07 L 904.86 754.56 L 901.34 761.37 L 897.34 767.79 L 892.85 773.97 L 889.57 777.63 L 882.17 784.31 L 873.32 790.36 L 868.71 793.00 L 863.86 795.02 L 858.89 796.53 L 850.15 797.42 L 843.48 796.28 L 840.33 795.02 L 837.42 793.13 L 834.99 790.48 L 832.45 786.70 L 830.51 782.54 L 829.05 778.13 L 827.96 773.59 L 826.50 764.39 L 825.65 755.19 L 826.14 749.01 L 827.11 746.11 L 826.75 750.65 L 829.90 744.10 L 833.54 737.79 L 839.36 730.10 L 846.64 722.92 L 864.10 709.56 L 868.23 705.90 L 871.99 701.87 L 875.26 697.33 Z" fill="#373536" fill-rule="nonzero" group-id="4,35" node-id="305" stroke="none" target-height="106.6405" target-width="88.177185" target-x="825.6535" target-y="690.7759"></path><path d="M 515.64 782.79 L 516.85 787.84 L 517.58 793.13 L 517.70 814.18 L 531.53 812.16 L 538.56 811.79 L 548.99 811.66 L 559.55 812.42 L 563.91 813.17 L 568.16 814.56 L 570.95 815.95 L 575.68 819.48 L 577.74 821.74 L 579.32 824.27 L 580.53 827.16 L 581.62 831.20 L 582.23 839.39 L 581.74 845.57 L 579.07 857.80 L 574.10 873.55 L 570.58 883.26 L 560.27 906.83 L 553.48 920.57 L 546.69 931.79 L 541.84 936.83 L 536.86 939.35 L 533.95 939.86 L 528.62 939.60 L 524.74 938.34 L 521.10 936.45 L 517.70 933.93 L 514.67 931.03 L 515.03 875.44 L 516.49 847.33 L 516.73 833.22 L 515.64 782.79 Z" fill="#373536" fill-rule="nonzero" group-id="4,36" node-id="310" stroke="none" target-height="157.06165" target-width="67.558105" target-x="514.6683" target-y="782.7942"></path><path d="M 287.01 833.59 L 292.22 834.98 L 297.44 835.61 L 313.45 836.37 L 318.79 837.25 L 322.30 838.38 L 325.46 840.02 L 328.37 842.16 L 331.04 844.69 L 335.16 850.74 L 337.83 857.67 L 338.44 861.32 L 338.68 865.11 L 338.31 868.76 L 337.47 872.42 L 335.77 876.07 L 333.71 879.35 L 327.16 886.41 L 300.23 907.96 L 298.77 910.99 L 298.41 916.28 L 296.95 910.86 L 288.95 862.33 L 286.40 843.05 L 287.01 833.59 Z" fill="#373536" fill-rule="nonzero" group-id="4,37" node-id="315" stroke="none" target-height="82.69055" target-width="52.275635" target-x="286.4023" target-y="833.5934"></path><path d="M 246.13 837.63 L 256.81 836.11 L 253.41 855.78 L 251.35 864.48 L 249.29 868.64 L 247.83 870.40 L 246.13 871.79 L 243.95 872.67 L 240.19 872.92 L 236.43 872.29 L 229.40 869.39 L 222.97 865.36 L 212.05 855.65 L 206.11 851.62 L 225.88 843.80 L 246.13 837.63 Z" fill="#373536" fill-rule="nonzero" group-id="4,38" node-id="320" stroke="none" target-height="36.807373" target-width="50.698868" target-x="206.10896" target-y="836.1145"></path><path d="M 622.13 867.63 L 635.47 864.60 L 639.60 862.96 L 642.14 861.45 L 644.45 859.56 L 646.51 857.04 L 644.08 878.09 L 638.75 912.25 L 636.08 925.36 L 632.20 938.09 L 612.55 931.03 L 606.00 927.75 L 602.97 925.61 L 599.93 923.09 L 597.39 920.19 L 595.20 916.91 L 593.51 913.26 L 592.17 909.60 L 591.44 905.70 L 591.20 901.79 L 591.44 897.88 L 592.41 893.97 L 593.87 889.43 L 596.05 885.27 L 598.72 881.49 L 601.88 878.09 L 605.39 875.19 L 609.27 872.54 L 613.40 870.40 L 622.13 867.63 Z" fill="#373536" fill-rule="nonzero" group-id="4,39" node-id="325" stroke="none" target-height="81.05182" target-width="55.30786" target-x="591.2017" target-y="857.0392"></path><path d="M 177.36 878.72 L 179.79 880.36 L 181.97 882.63 L 185.73 887.42 L 190.83 894.98 L 195.44 902.80 L 199.44 910.86 L 206.23 927.88 L 208.90 936.70 L 211.20 945.53 L 214.60 963.55 L 215.08 972.25 L 214.84 981.20 L 214.24 987.13 L 211.93 998.72 L 209.99 1004.27 L 207.56 1009.56 L 202.96 1016.75 L 198.95 1019.90 L 195.56 1021.54 L 191.92 1022.67 L 184.28 1023.43 L 180.15 1023.18 L 172.27 1021.29 L 166.57 1018.89 L 161.23 1015.61 L 151.41 1007.92 L 146.19 1002.38 L 141.34 996.45 L 136.97 990.15 L 132.97 983.47 L 129.45 976.66 L 123.51 962.29 L 118.90 947.54 L 116.48 937.59 L 114.78 927.50 L 114.05 920.70 L 113.93 906.96 L 114.90 900.40 L 115.75 898.26 L 115.99 899.77 L 125.57 894.60 L 135.40 889.94 L 145.59 886.03 L 156.02 882.88 L 166.57 880.48 L 177.36 878.72 Z" fill="#373536" fill-rule="nonzero" group-id="4,40" node-id="330" stroke="none" target-height="144.70844" target-width="101.15516" target-x="113.92924" target-y="878.72015"></path><path d="M 760.40 895.99 L 765.13 891.45 L 770.35 887.42 L 773.14 885.91 L 776.17 884.90 L 793.63 885.27 L 805.28 886.66 L 815.71 889.06 L 829.53 893.97 L 839.00 896.24 L 840.21 903.17 L 840.94 909.98 L 841.18 916.79 L 840.94 923.72 L 839.84 932.80 L 838.15 941.75 L 835.84 950.70 L 832.93 959.39 L 825.90 976.28 L 821.17 984.60 L 815.83 992.80 L 811.95 997.84 L 803.22 1007.29 L 798.48 1011.45 L 793.39 1015.24 L 788.05 1018.64 L 783.44 1020.91 L 778.59 1022.55 L 773.62 1023.43 L 763.55 1023.68 L 758.46 1023.05 L 752.88 1020.91 L 750.45 1019.27 L 747.18 1016.24 L 744.39 1012.46 L 742.09 1008.43 L 740.39 1004.27 L 738.33 997.34 L 736.75 990.40 L 735.78 983.22 L 735.29 976.03 L 735.29 968.85 L 736.02 961.54 L 738.08 945.91 L 741.84 930.40 L 744.51 922.96 L 747.66 915.65 L 751.30 908.72 L 755.55 902.17 L 760.40 895.99 Z" fill="#373536" fill-rule="nonzero" group-id="4,41" node-id="335" stroke="none" target-height="138.784" target-width="105.88544" target-x="735.2931" target-y="884.8968"></path><path d="M 331.40 931.54 L 334.92 930.02 L 338.56 928.89 L 342.32 928.51 L 347.90 928.51 L 353.72 929.39 L 359.30 930.91 L 364.63 932.67 L 363.54 941.37 L 362.69 945.78 L 361.36 949.81 L 359.90 952.33 L 358.08 954.35 L 355.66 956.12 L 353.60 956.37 L 349.72 955.74 L 344.38 952.84 L 339.65 948.93 L 335.16 944.02 L 333.22 941.24 L 331.76 938.22 L 331.04 933.93 L 331.40 931.54 Z" fill="#373536" fill-rule="nonzero" group-id="4,42" node-id="340" stroke="none" target-height="27.857605" target-width="33.597076" target-x="331.0367" target-y="928.511"></path><path d="M 239.10 934.81 L 241.77 934.56 L 244.07 934.94 L 246.26 935.70 L 249.17 937.71 L 251.71 940.36 L 253.90 943.51 L 256.81 949.81 L 257.66 953.09 L 257.66 957.38 L 256.32 961.16 L 255.11 962.04 L 251.96 962.67 L 246.01 962.17 L 243.47 961.03 L 240.68 958.39 L 239.71 956.75 L 238.49 951.33 L 237.89 945.78 L 238.25 938.47 L 239.10 934.81 Z" fill="#373536" fill-rule="nonzero" group-id="4,43" node-id="345" stroke="none" target-height="28.109741" target-width="19.770126" target-x="237.8867" target-y="934.5615"></path><path d="M 516.00 978.81 L 528.86 981.96 L 550.81 985.99 L 568.40 987.63 L 577.25 987.88 L 594.96 986.87 L 601.75 985.74 L 621.89 980.07 L 618.37 994.18 L 614.37 1008.18 L 611.82 1014.35 L 609.15 1017.76 L 607.33 1018.89 L 600.66 1021.66 L 593.87 1023.81 L 580.04 1027.21 L 570.10 1028.60 L 559.91 1029.35 L 553.00 1029.35 L 539.53 1028.22 L 532.98 1026.71 L 526.55 1024.69 L 520.25 1022.04 L 518.55 1020.66 L 517.58 1016.24 L 516.73 1006.92 L 516.00 978.81 Z" fill="#373536" fill-rule="nonzero" group-id="4,44" node-id="350" stroke="none" target-height="50.54712" target-width="105.88544" target-x="516.00256" target-y="978.806"></path><path d="M 313.21 979.69 L 321.82 982.34 L 339.28 985.99 L 348.14 987.00 L 360.02 987.76 L 371.91 987.63 L 383.80 986.87 L 395.68 985.23 L 407.33 983.09 L 418.97 980.07 L 418.73 1017.38 L 413.39 1020.91 L 407.93 1023.68 L 402.11 1025.82 L 390.10 1028.85 L 383.80 1029.61 L 374.46 1030.11 L 365.24 1029.86 L 356.14 1028.85 L 347.05 1027.08 L 338.19 1024.69 L 327.52 1020.40 L 325.94 1018.89 L 323.88 1014.98 L 313.21 979.69 Z" fill="#373536" fill-rule="nonzero" group-id="4,45" node-id="355" stroke="none" target-height="50.42102" target-width="105.76413" target-x="313.20718" target-y="979.68835"></path><path d="M 252.93 53.83 L 261.30 54.84 L 265.42 55.97 L 269.30 57.49 L 275.24 60.51 L 280.94 64.04 L 286.40 67.95 L 291.50 72.36 L 296.35 77.15 L 300.71 82.32 L 308.23 92.28 L 334.31 130.09 L 345.11 142.70 L 339.28 140.68 L 332.73 136.27 L 323.88 127.45 L 314.42 115.09 L 295.50 88.62 L 289.80 81.44 L 283.73 74.63 L 277.18 68.33 L 272.45 64.67 L 267.48 61.40 L 252.93 53.83 Z" fill="#cccbcb" fill-rule="nonzero" group-id="5,46" node-id="363" stroke="none" target-height="88.86711" target-width="92.17976" target-x="252.92653" target-y="53.832035"></path><path d="M 496.11 118.88 L 504.36 118.75 L 514.91 120.14 L 525.34 122.03 L 535.65 124.55 L 551.06 128.96 L 566.22 134.00 L 577.62 138.54 L 588.78 143.58 L 599.69 149.13 L 583.20 162.74 L 577.74 157.45 L 572.04 152.66 L 565.85 148.37 L 559.55 144.46 L 553.00 141.06 L 539.90 135.77 L 520.61 129.84 L 508.00 125.30 L 501.93 122.40 L 496.11 118.88 Z" fill="#cccbcb" fill-rule="nonzero" group-id="5,47" node-id="368" stroke="none" target-height="43.99237" target-width="103.58096" target-x="496.1111" target-y="118.749146"></path><path d="M 780.53 219.34 L 790.96 214.04 L 808.92 205.98 L 823.83 201.44 L 831.48 200.05 L 839.24 199.30 L 851.61 199.55 L 860.46 201.31 L 864.83 202.70 L 872.96 206.61 L 876.72 209.25 L 883.63 215.31 L 870.77 210.39 L 863.01 209.38 L 855.37 208.88 L 847.61 208.88 L 839.72 209.51 L 831.96 210.64 L 824.44 212.28 L 817.04 214.55 L 771.56 233.96 L 765.13 236.48 L 751.79 240.01 L 745.00 241.15 L 731.29 242.15 L 735.05 240.14 L 757.97 230.31 L 780.53 219.34 Z" fill="#cccbcb" fill-rule="nonzero" group-id="5,48" node-id="373" stroke="none" target-height="42.857895" target-width="152.33917" target-x="731.2905" target-y="199.29666"></path><path d="M 651.60 539.76 L 654.88 543.29 L 658.64 546.32 L 662.64 549.09 L 667.01 551.24 L 674.77 553.88 L 691.02 557.79 L 683.62 567.87 L 675.74 577.33 L 667.25 586.28 L 658.27 594.60 L 648.81 602.54 L 639.11 609.85 L 628.92 616.66 L 618.37 622.96 L 607.58 628.76 L 596.66 634.05 L 585.50 638.84 L 574.22 643.25 L 549.60 651.07 L 537.11 654.09 L 524.37 656.49 L 539.05 647.79 L 545.96 643.00 L 552.51 637.46 L 557.48 632.54 L 561.85 627.25 L 565.97 621.57 L 569.61 615.52 L 575.80 602.92 L 583.32 600.14 L 590.72 596.74 L 597.75 592.71 L 604.54 588.04 L 610.73 582.87 L 616.55 577.08 L 616.92 586.78 L 617.52 589.05 L 619.34 591.95 L 622.37 593.34 L 628.80 593.09 L 636.81 590.82 L 641.29 588.67 L 645.66 585.27 L 647.48 583.13 L 648.69 580.61 L 649.30 577.08 L 649.06 575.06 L 647.60 571.53 L 645.66 568.25 L 643.48 565.23 L 635.71 556.91 L 643.96 548.71 L 651.60 539.76 Z" fill="#cccbcb" fill-rule="nonzero" group-id="5,49" node-id="378" stroke="none" target-height="116.72473" target-width="166.6513" target-x="524.3714" target-y="539.76483"></path><path d="M 99.86 556.91 L 103.86 554.13 L 106.05 553.13 L 120.24 552.87 L 131.88 553.50 L 143.52 554.77 L 224.67 564.60 L 220.42 565.73 L 211.93 566.36 L 205.50 566.11 L 165.96 562.71 L 132.97 559.43 L 99.86 556.91 Z" fill="#cccbcb" fill-rule="nonzero" group-id="5,50" node-id="383" stroke="none" target-height="13.487671" target-width="124.80653" target-x="99.85971" target-y="552.87427"></path><path d="M 235.70 602.67 L 248.68 600.14 L 253.05 599.77 L 256.20 599.89 L 246.86 602.92 L 202.47 613.51 L 186.95 617.54 L 171.42 622.08 L 147.16 630.27 L 150.80 627.62 L 158.44 623.34 L 170.69 618.55 L 181.37 615.02 L 202.96 609.35 L 235.70 602.67 Z" fill="#cccbcb" fill-rule="nonzero" group-id="5,51" node-id="388" stroke="none" target-height="30.5047" target-width="109.038956" target-x="147.16246" target-y="599.76587"></path><path d="M 410.36 607.71 L 416.42 607.71 L 431.34 611.99 L 448.57 618.67 L 450.87 620.31 L 454.99 624.47 L 447.23 620.94 L 410.36 607.71 Z" fill="#cccbcb" fill-rule="nonzero" group-id="5,52" node-id="393" stroke="none" target-height="16.765015" target-width="44.63443" target-x="410.35977" target-y="607.7071"></path><path d="M 319.88 629.64 L 341.35 642.25 L 352.14 647.29 L 374.34 656.11 L 397.02 663.17 L 408.54 665.82 L 420.18 668.09 L 445.65 671.62 L 459.24 672.62 L 472.94 672.75 L 486.65 672.25 L 500.24 671.24 L 513.82 669.47 L 527.40 667.08 L 540.75 664.18 L 561.73 658.51 L 584.65 651.07 L 592.66 660.90 L 586.47 661.91 L 580.29 663.55 L 562.34 669.85 L 542.08 675.90 L 527.65 679.56 L 513.09 682.58 L 498.54 684.98 L 478.89 686.62 L 455.96 686.87 L 442.99 686.11 L 430.01 684.60 L 417.15 682.58 L 404.42 679.81 L 391.80 676.53 L 379.31 672.62 L 367.06 668.09 L 348.26 659.89 L 328.61 648.67 L 321.94 645.27 L 314.91 642.50 L 319.88 629.64 Z" fill="#cccbcb" fill-rule="nonzero" group-id="5,53" node-id="398" stroke="none" target-height="57.227905" target-width="277.75217" target-x="314.90518" target-y="629.6403"></path><path d="M 170.81 680.57 L 173.24 676.53 L 176.03 672.88 L 179.18 669.47 L 184.52 665.06 L 190.10 661.15 L 187.31 666.07 L 184.03 670.73 L 176.39 680.44 L 170.81 680.57 Z" fill="#cccbcb" fill-rule="nonzero" group-id="5,54" node-id="403" stroke="none" target-height="19.41211" target-width="19.284973" target-x="170.81383" target-y="661.1535"></path><path d="M 851.49 711.83 L 863.74 705.40 L 875.26 697.33 L 871.99 701.87 L 868.23 705.90 L 864.10 709.56 L 846.64 722.92 L 839.36 730.10 L 833.54 737.79 L 829.90 744.10 L 826.75 750.65 L 827.11 746.11 L 827.96 741.20 L 829.41 736.53 L 831.35 732.00 L 833.78 727.71 L 836.57 723.80 L 839.84 720.15 L 843.36 716.87 L 847.36 714.22 L 851.49 711.83 Z" fill="#cccbcb" fill-rule="nonzero" group-id="5,55" node-id="408" stroke="none" target-height="53.32025" target-width="48.515625" target-x="826.7451" target-y="697.33057"></path><path d="M 425.40 791.37 L 426.98 798.68 L 427.83 805.99 L 429.89 862.59 L 430.74 875.95 L 433.53 898.13 L 437.53 915.53 L 442.38 930.02 L 445.65 937.08 L 449.41 943.64 L 452.33 947.80 L 459.12 955.11 L 463.24 958.39 L 467.73 960.91 L 472.34 963.05 L 477.31 964.44 L 482.28 965.32 L 487.38 965.57 L 492.47 965.32 L 497.57 964.56 L 502.42 963.18 L 502.78 915.15 L 503.39 899.14 L 504.12 916.28 L 504.48 990.78 L 505.81 1003.89 L 506.54 1020.03 L 484.95 1021.16 L 465.42 1020.03 L 453.17 1019.14 L 440.92 1017.63 L 428.92 1015.36 L 429.77 1008.43 L 430.13 1001.50 L 430.37 958.26 L 430.01 915.15 L 429.40 903.93 L 428.43 859.06 L 425.40 791.37 Z" fill="#cccbcb" fill-rule="nonzero" group-id="5,56" node-id="413" stroke="none" target-height="229.794" target-width="81.142456" target-x="425.39954" target-y="791.3658"></path><path d="M 837.05 805.61 L 843.48 807.00 L 839.72 822.00 L 837.05 829.31 L 834.02 836.49 L 830.51 843.30 L 826.50 849.85 L 822.01 856.16 L 817.16 861.96 L 811.71 867.38 L 810.25 868.64 L 808.67 869.39 L 801.40 869.77 L 813.65 856.91 L 817.41 852.25 L 824.08 842.42 L 827.11 836.62 L 829.78 830.69 L 831.96 824.52 L 837.05 805.61 Z" fill="#cccbcb" fill-rule="nonzero" group-id="5,57" node-id="418" stroke="none" target-height="64.16077" target-width="42.08734" target-x="801.3957" target-y="805.6097"></path><path d="M 656.46 861.58 L 658.52 840.02 L 660.46 829.31 L 658.76 855.78 L 656.70 902.17 L 656.46 914.65 L 656.70 927.88 L 658.03 941.12 L 660.34 949.56 L 662.03 953.60 L 663.61 956.49 L 667.74 961.16 L 671.50 964.06 L 679.99 968.22 L 694.05 972.76 L 703.76 975.40 L 723.53 979.44 L 724.74 958.13 L 726.92 947.67 L 725.10 971.87 L 724.98 979.94 L 725.47 988.01 L 726.68 996.08 L 728.38 1002.50 L 730.68 1008.68 L 733.47 1014.73 L 736.75 1020.40 L 718.68 1017.25 L 700.60 1013.60 L 682.65 1009.44 L 664.82 1004.77 L 647.12 999.60 L 629.65 993.93 L 635.47 972.13 L 640.69 950.32 L 645.54 928.26 L 649.91 906.20 L 653.54 883.89 L 656.46 861.58 Z" fill="#cccbcb" fill-rule="nonzero" group-id="5,58" node-id="423" stroke="none" target-height="191.09583" target-width="107.09833" target-x="629.6503" target-y="829.30756"></path><path d="M 267.36 833.09 L 275.12 831.32 L 279.73 867.38 L 287.37 912.12 L 295.74 952.34 L 305.44 992.67 L 291.38 997.84 L 263.11 1006.66 L 232.06 1014.48 L 215.21 1017.76 L 218.84 1010.70 L 221.88 1003.13 L 223.33 997.97 L 224.30 992.80 L 224.79 987.38 L 225.03 976.66 L 224.06 955.11 L 225.27 960.78 L 226.49 972.00 L 226.24 983.34 L 225.52 989.02 L 226.61 981.83 L 242.25 978.55 L 250.02 976.54 L 257.41 973.76 L 262.14 971.37 L 266.75 968.60 L 271.00 965.19 L 275.37 960.40 L 279.12 953.34 L 280.70 948.68 L 282.40 939.10 L 283.25 921.33 L 282.28 899.27 L 280.82 886.03 L 275.49 846.32 L 274.15 833.09 L 267.36 833.09 Z" fill="#cccbcb" fill-rule="nonzero" group-id="5,59" node-id="428" stroke="none" target-height="186.43188" target-width="90.23912" target-x="215.20561" target-y="831.32446"></path><path d="M 125.21 888.17 L 138.91 881.49 L 146.07 878.85 L 153.35 876.83 L 160.75 875.32 L 169.96 874.43 L 173.12 875.70 L 177.36 878.72 L 166.57 880.49 L 156.02 882.88 L 145.59 886.03 L 135.40 889.94 L 125.57 894.60 L 115.99 899.77 L 115.75 898.26 L 117.93 894.10 L 122.30 890.07 L 125.21 888.17 Z" fill="#cccbcb" fill-rule="nonzero" group-id="5,60" node-id="433" stroke="none" target-height="25.336548" target-width="61.61489" target-x="115.74857" target-y="874.4345"></path><path d="M 776.17 884.90 L 781.63 882.63 L 787.08 881.12 L 792.78 880.23 L 798.48 879.98 L 804.31 880.23 L 810.01 880.99 L 821.29 883.89 L 829.17 886.91 L 833.54 890.06 L 839.00 896.24 L 829.53 893.97 L 815.71 889.06 L 805.28 886.66 L 793.63 885.27 L 776.17 884.90 Z" fill="#cccbcb" fill-rule="nonzero" group-id="5,61" node-id="438" stroke="none" target-height="16.260742" target-width="62.82782" target-x="776.16754" target-y="879.9808"></path><path d="M 298.41 916.28 L 298.77 910.99 L 300.23 907.96 L 301.44 906.70 L 302.66 914.90 L 304.47 922.96 L 308.36 935.19 L 317.09 959.39 L 322.06 971.12 L 314.42 968.34 L 312.12 967.08 L 309.81 964.56 L 304.96 947.42 L 301.44 931.91 L 298.41 916.28 Z" fill="#cccbcb" fill-rule="nonzero" group-id="5,62" node-id="443" stroke="none" target-height="64.4129" target-width="23.651398" target-x="298.40994" target-y="906.7039"></path><path d="M 622.98 934.44 L 632.20 938.09 L 629.41 952.46 L 627.59 959.52 L 625.28 966.33 L 617.40 969.73 L 609.15 972.50 L 600.78 974.65 L 592.29 976.16 L 583.80 977.17 L 575.19 977.42 L 579.19 972.50 L 586.71 965.32 L 589.99 962.92 L 606.61 953.22 L 614.61 947.04 L 618.01 943.51 L 619.95 940.74 L 622.98 934.44 Z" fill="#cccbcb" fill-rule="nonzero" group-id="5,63" node-id="448" stroke="none" target-height="42.983948" target-width="57.00586" target-x="575.1916" target-y="934.4354"></path><path d="M 392.77 141.19 L 404.17 135.51 L 415.70 130.72 L 427.58 126.44 L 439.71 123.03 L 451.84 120.26 L 464.21 118.12 L 472.22 117.36 L 473.92 123.29 L 476.22 135.14 L 477.19 144.21 L 479.25 171.44 L 480.71 180.39 L 481.92 184.80 L 485.07 191.61 L 488.96 196.02 L 492.72 198.41 L 496.72 200.31 L 500.84 201.44 L 505.21 201.94 L 509.57 201.94 L 513.94 201.19 L 518.06 199.93 L 521.95 198.04 L 529.95 192.11 L 541.96 180.77 L 547.90 176.73 L 551.30 175.22 L 557.85 173.20 L 564.52 171.82 L 577.98 169.93 L 570.34 179.25 L 563.06 188.83 L 556.27 198.67 L 549.96 208.88 L 544.02 219.34 L 533.35 240.89 L 528.50 251.99 L 522.79 267.11 L 517.58 282.49 L 513.09 298.00 L 509.21 313.75 L 505.94 329.64 L 501.45 356.86 L 499.51 379.80 L 498.66 414.34 L 486.04 405.90 L 473.07 398.08 L 459.72 390.90 L 446.14 384.34 L 432.31 378.29 L 418.24 373.00 L 393.86 365.06 L 369.00 358.63 L 356.39 356.23 L 343.77 354.22 L 331.04 352.95 L 318.30 352.32 L 296.35 352.58 L 287.25 353.33 L 278.28 354.59 L 269.30 356.48 L 260.57 358.88 L 251.83 361.78 L 243.34 365.18 L 235.22 369.22 L 227.21 373.88 L 222.73 376.78 L 214.60 383.84 L 203.68 395.56 L 206.11 382.83 L 207.93 376.65 L 210.11 370.48 L 212.90 364.68 L 215.93 359.01 L 219.57 353.71 L 223.57 348.80 L 228.18 344.26 L 247.35 341.23 L 256.81 339.34 L 266.15 336.82 L 271.24 334.68 L 273.67 333.04 L 276.58 329.64 L 277.43 325.85 L 277.43 321.57 L 276.94 317.41 L 275.73 313.50 L 271.85 306.06 L 269.30 302.66 L 265.06 298.00 L 260.57 293.71 L 267.97 276.57 L 274.64 263.21 L 281.67 250.10 L 288.34 239.26 L 295.38 228.79 L 303.02 218.58 L 311.02 208.88 L 319.39 199.42 L 334.92 183.41 L 342.07 176.86 L 365.60 157.95 L 374.34 151.77 L 383.43 146.10 L 392.77 141.19 Z M 401.02 149.51 L 398.96 151.90 L 397.26 154.55 L 394.47 160.47 L 391.20 168.04 L 389.13 176.10 L 388.89 180.26 L 389.38 184.42 L 391.80 186.69 L 395.56 187.70 L 402.96 187.32 L 411.57 184.93 L 415.82 183.16 L 419.70 180.89 L 422.12 179.13 L 425.88 174.34 L 424.55 170.93 L 422.73 167.66 L 420.55 164.76 L 413.15 156.56 L 407.69 151.65 L 405.63 150.39 L 403.45 149.63 L 401.02 149.51 Z M 340.86 214.55 L 338.80 215.43 L 335.40 218.33 L 335.77 222.11 L 337.22 225.64 L 355.66 223.50 L 365.85 223.88 L 372.03 225.01 L 377.98 227.03 L 383.80 229.55 L 389.38 232.70 L 394.59 236.23 L 397.99 233.84 L 399.69 231.82 L 399.93 228.79 L 399.57 227.41 L 397.50 224.63 L 395.68 223.25 L 390.23 219.84 L 384.53 217.07 L 378.46 214.80 L 372.27 213.16 L 366.09 212.15 L 359.66 211.78 L 353.35 212.03 L 347.05 212.91 L 340.86 214.55 Z M 294.65 275.56 L 294.16 280.85 L 295.74 287.03 L 297.32 290.56 L 301.32 297.37 L 303.87 301.02 L 307.14 304.05 L 309.08 305.05 L 311.27 305.43 L 316.24 302.53 L 323.27 297.11 L 325.82 295.73 L 330.43 294.34 L 335.04 293.58 L 339.77 293.58 L 344.50 294.34 L 349.11 295.73 L 353.35 297.74 L 357.60 300.52 L 361.36 303.67 L 364.63 307.45 L 367.54 311.48 L 370.09 315.90 L 375.19 327.87 L 377.01 329.89 L 378.82 330.01 L 381.86 328.88 L 383.68 326.99 L 385.01 324.72 L 383.19 318.16 L 380.52 311.86 L 377.25 305.81 L 371.18 297.74 L 363.91 290.94 L 359.78 288.16 L 355.42 285.89 L 350.81 284.13 L 345.83 282.87 L 341.71 282.11 L 337.59 281.74 L 333.58 281.99 L 325.58 283.75 L 321.58 285.14 L 316.00 287.79 L 310.66 290.94 L 301.81 275.18 L 294.65 275.56 Z" fill="#fdfdfd" fill-rule="nonzero" group-id="6,64" node-id="456" stroke="none" target-height="296.98004" target-width="374.29834" target-x="203.68304" target-y="117.3625"></path><path d="M 583.44 352.32 L 585.14 351.57 L 587.08 351.44 L 588.90 351.95 L 592.05 353.84 L 593.75 356.74 L 594.11 359.38 L 593.75 362.03 L 592.17 365.18 L 589.75 367.32 L 586.84 368.33 L 582.11 367.70 L 580.41 366.32 L 579.32 364.30 L 578.71 362.03 L 578.59 359.76 L 579.07 357.37 L 580.04 355.22 L 581.50 353.59 L 583.44 352.32 Z" fill="#fdfdfd" fill-rule="nonzero" group-id="6,65" node-id="461" stroke="none" target-height="16.891052" target-width="15.524963" target-x="578.58765" target-y="351.44223"></path><path d="M 331.28 372.62 L 338.92 372.24 L 346.56 372.62 L 361.72 374.13 L 374.82 376.40 L 387.92 379.17 L 396.53 381.44 L 413.39 387.49 L 421.40 391.27 L 429.28 395.56 L 441.17 403.75 L 445.29 407.41 L 452.81 415.48 L 396.65 393.29 L 377.73 386.48 L 365.00 382.45 L 352.02 378.92 L 339.04 375.90 L 331.28 372.62 Z" fill="#fdfdfd" fill-rule="nonzero" group-id="6,66" node-id="466" stroke="none" target-height="43.236053" target-width="121.53174" target-x="331.27924" target-y="372.24088"></path><path d="M 539.90 379.80 L 546.81 380.18 L 546.81 388.88 L 539.90 389.38 L 539.05 387.75 L 538.56 384.59 L 538.93 382.20 L 539.90 379.80 Z" fill="#fdfdfd" fill-rule="nonzero" group-id="6,67" node-id="471" stroke="none" target-height="9.579987" target-width="8.247681" target-x="538.56226" target-y="379.80405"></path><path d="M 565.12 489.34 L 582.59 496.02 L 590.96 498.55 L 607.82 502.20 L 627.83 504.34 L 639.35 504.72 L 650.75 504.60 L 647.97 513.80 L 646.99 518.59 L 646.51 523.38 L 647.12 527.66 L 648.21 531.82 L 651.60 539.76 L 643.96 548.71 L 635.71 556.91 L 630.38 555.27 L 626.74 565.98 L 624.56 569.14 L 610.73 582.87 L 604.54 588.04 L 597.75 592.71 L 590.72 596.74 L 583.32 600.14 L 575.80 602.92 L 578.35 595.73 L 580.29 588.30 L 581.86 580.73 L 582.95 573.04 L 583.44 565.35 L 583.44 557.66 L 582.95 549.98 L 580.53 533.46 L 578.47 524.76 L 575.92 516.19 L 571.19 503.59 L 565.12 489.34 Z" fill="#fdfdfd" fill-rule="nonzero" group-id="6,68" node-id="476" stroke="none" target-height="113.573425" target-width="86.47919" target-x="565.1246" target-y="489.34375"></path><path d="M 313.57 642.12 L 321.94 645.27 L 328.61 648.67 L 348.26 659.89 L 355.05 663.04 L 367.06 668.09 L 379.31 672.62 L 391.80 676.53 L 404.42 679.81 L 417.15 682.58 L 430.01 684.60 L 442.99 686.11 L 455.96 686.87 L 478.89 686.62 L 498.54 684.98 L 513.09 682.58 L 527.65 679.56 L 542.08 675.90 L 562.33 669.85 L 580.29 663.55 L 586.47 661.91 L 592.66 660.90 L 597.99 666.83 L 599.21 669.09 L 599.93 672.37 L 599.57 674.26 L 597.75 677.54 L 589.02 689.77 L 585.99 696.70 L 585.26 700.36 L 585.02 704.14 L 585.38 707.92 L 586.47 711.57 L 588.29 714.85 L 590.23 716.99 L 592.41 718.76 L 594.84 720.02 L 600.30 721.28 L 610.73 721.15 L 613.16 721.41 L 615.46 722.29 L 617.52 723.80 L 619.83 726.57 L 621.65 729.73 L 627.22 743.09 L 628.92 746.24 L 630.98 749.26 L 632.68 750.78 L 636.56 752.79 L 640.93 753.30 L 644.93 752.16 L 646.63 750.78 L 650.88 744.35 L 660.70 724.94 L 665.79 717.75 L 671.13 712.96 L 676.35 726.57 L 680.83 740.44 L 684.84 754.56 L 688.11 768.80 L 690.90 783.17 L 693.08 797.54 L 694.90 812.16 L 697.21 837.38 L 697.69 848.09 L 697.57 890.95 L 700.24 887.92 L 702.18 884.52 L 703.64 880.86 L 706.31 869.01 L 707.28 861.45 L 707.64 853.76 L 707.64 838.38 L 726.56 845.44 L 745.00 853.51 L 761.73 862.08 L 769.86 866.87 L 777.62 872.17 L 771.44 874.81 L 765.62 878.09 L 760.16 882.12 L 755.18 886.54 L 750.58 891.58 L 746.33 897.00 L 742.57 902.80 L 739.30 908.72 L 733.47 922.96 L 730.93 931.03 L 725.59 952.84 L 724.26 963.43 L 723.53 979.44 L 713.58 977.67 L 694.05 972.76 L 679.99 968.22 L 671.50 964.06 L 667.74 961.16 L 665.55 959.02 L 662.03 953.60 L 659.00 945.40 L 657.18 934.56 L 656.46 914.65 L 656.70 902.17 L 658.76 855.78 L 660.09 838.13 L 660.94 807.12 L 660.22 792.37 L 659.00 785.06 L 655.48 784.69 L 648.33 845.06 L 646.51 857.04 L 644.45 859.56 L 642.14 861.45 L 639.60 862.96 L 635.47 864.60 L 617.64 868.76 L 609.27 872.54 L 605.39 875.19 L 601.88 878.09 L 598.72 881.49 L 596.05 885.28 L 593.99 889.43 L 592.41 893.97 L 591.44 897.88 L 591.20 901.79 L 591.44 905.70 L 592.17 909.60 L 593.51 913.26 L 595.20 916.91 L 597.39 920.19 L 599.93 923.09 L 602.97 925.61 L 609.15 929.52 L 622.86 934.44 L 621.65 937.84 L 618.01 943.51 L 614.61 947.04 L 610.73 950.32 L 606.61 953.22 L 589.99 962.92 L 586.71 965.32 L 579.19 972.50 L 575.19 977.42 L 565.00 976.66 L 544.63 974.02 L 534.68 972.13 L 524.74 969.60 L 514.91 966.58 L 514.67 931.03 L 517.70 933.93 L 521.10 936.45 L 524.74 938.34 L 528.62 939.60 L 531.28 939.98 L 536.86 939.35 L 539.53 938.22 L 543.90 934.94 L 546.69 931.79 L 553.48 920.57 L 560.27 906.83 L 566.70 892.71 L 574.10 873.55 L 577.37 863.72 L 580.53 851.75 L 581.74 845.57 L 582.23 839.39 L 582.11 835.36 L 580.53 827.16 L 579.32 824.27 L 577.74 821.74 L 575.68 819.48 L 570.95 815.95 L 563.91 813.17 L 559.55 812.42 L 548.99 811.66 L 538.56 811.79 L 524.61 813.05 L 517.70 814.18 L 517.70 798.42 L 516.85 787.84 L 515.64 782.79 L 514.43 779.90 L 510.91 780.78 L 509.45 789.85 L 508.60 799.06 L 506.42 835.74 L 505.69 861.96 L 504.97 870.65 L 504.36 934.56 L 504.60 966.45 L 505.21 998.47 L 504.48 990.78 L 504.36 983.09 L 504.12 916.28 L 503.39 899.14 L 502.78 915.15 L 502.42 963.18 L 497.57 964.56 L 492.47 965.32 L 487.38 965.57 L 482.28 965.32 L 477.31 964.44 L 472.34 963.05 L 467.73 960.91 L 463.24 958.39 L 459.12 955.11 L 452.33 947.80 L 449.41 943.64 L 445.65 937.08 L 442.38 930.02 L 439.83 922.84 L 435.35 906.83 L 432.19 889.31 L 430.74 875.95 L 429.89 862.59 L 428.19 813.43 L 426.98 798.68 L 425.40 791.37 L 422.85 783.05 L 418.85 783.30 L 418.00 799.06 L 417.88 814.81 L 418.97 901.03 L 419.82 919.18 L 420.18 968.22 L 409.51 971.50 L 398.72 973.89 L 387.80 975.78 L 376.76 976.79 L 365.73 977.17 L 354.69 976.79 L 343.65 975.65 L 332.86 973.76 L 322.06 971.12 L 317.09 959.39 L 308.36 935.19 L 304.47 922.96 L 302.65 914.90 L 301.44 906.70 L 322.79 890.19 L 327.16 886.41 L 333.70 879.35 L 335.77 876.07 L 337.46 872.42 L 338.31 868.76 L 338.68 865.11 L 337.83 857.67 L 335.16 850.74 L 331.04 844.69 L 328.37 842.17 L 325.46 840.02 L 322.30 838.38 L 318.79 837.25 L 313.45 836.37 L 297.44 835.61 L 292.22 834.98 L 286.04 833.09 L 283.61 812.67 L 283.13 802.33 L 282.88 786.83 L 283.25 771.32 L 293.80 768.30 L 299.26 767.16 L 304.72 766.41 L 311.99 766.79 L 315.63 767.54 L 319.27 769.43 L 325.82 774.10 L 343.89 790.74 L 350.56 795.27 L 354.32 797.04 L 358.33 798.30 L 362.57 798.80 L 368.03 798.30 L 373.12 796.16 L 375.31 794.39 L 377.25 792.12 L 379.07 789.22 L 381.49 783.05 L 382.71 778.13 L 384.53 762.88 L 389.38 708.80 L 389.01 704.52 L 388.16 700.36 L 386.59 696.45 L 383.31 692.16 L 381.13 690.40 L 378.34 689.01 L 372.64 687.75 L 368.15 687.50 L 359.18 688.00 L 351.78 687.75 L 346.08 685.73 L 343.04 683.59 L 338.19 677.92 L 330.19 664.05 L 324.73 656.49 L 321.58 653.21 L 314.42 647.54 L 313.45 646.28 L 313.57 642.12 Z M 331.40 931.54 L 331.04 933.93 L 331.76 938.22 L 333.22 941.24 L 337.34 946.54 L 344.38 952.84 L 347.05 954.48 L 351.66 956.24 L 355.66 956.12 L 358.08 954.35 L 359.90 952.34 L 361.36 949.81 L 362.69 945.78 L 364.63 932.67 L 353.72 929.39 L 347.90 928.51 L 342.32 928.51 L 338.56 928.89 L 334.92 930.02 L 331.40 931.54 Z" fill="#fdfdfd" fill-rule="nonzero" group-id="6,69" node-id="481" stroke="none" target-height="356.35083" target-width="494.73846" target-x="282.8847" target-y="642.11945"></path><path d="M 819.24 840.02 L 823.90 834.22 L 831.45 822.00 L 839.96 802.71 L 844.94 805.61 L 841.89 815.19 L 835.30 830.69 L 831.77 836.62 L 823.58 847.46 L 813.94 856.91 L 797.72 869.77 L 788.89 868.89 L 780.53 866.24 L 788.08 862.96 L 795.31 859.31 L 802.22 855.15 L 808.48 850.61 L 814.10 845.57 L 819.24 840.02 Z" fill="#fdfdfd" fill-rule="nonzero" group-id="6,70" node-id="486" stroke="none" target-height="67.06" target-width="64.40454" target-x="780.5339" target-y="802.7105"></path><path d="M 256.93 834.85 L 267.36 833.09 L 274.15 833.09 L 282.28 899.27 L 283.25 921.33 L 283.01 930.15 L 281.79 943.89 L 280.70 948.68 L 279.13 953.34 L 277.06 957.76 L 273.30 962.92 L 271.00 965.19 L 266.75 968.60 L 262.14 971.37 L 257.41 973.76 L 250.02 976.54 L 242.25 978.55 L 226.61 981.83 L 225.52 989.02 L 226.61 977.67 L 226.49 972.00 L 225.27 960.78 L 221.39 943.01 L 218.12 930.78 L 212.78 914.77 L 205.87 899.52 L 201.86 892.33 L 197.38 885.40 L 192.40 878.97 L 186.82 872.80 L 180.64 867.25 L 188.76 861.32 L 206.11 851.62 L 212.05 855.65 L 222.97 865.36 L 229.40 869.39 L 236.43 872.29 L 240.19 872.92 L 243.95 872.67 L 246.13 871.79 L 249.29 868.64 L 250.38 866.62 L 251.96 862.21 L 254.62 849.22 L 256.93 834.85 Z M 239.10 934.81 L 238.25 938.47 L 237.89 945.78 L 238.49 951.33 L 239.71 956.75 L 241.89 959.90 L 245.16 961.91 L 246.86 962.42 L 251.96 962.67 L 255.11 962.04 L 256.32 961.16 L 257.66 957.38 L 257.66 953.09 L 255.59 946.79 L 251.71 940.36 L 249.17 937.71 L 246.26 935.70 L 244.07 934.94 L 241.77 934.56 L 239.10 934.81 Z" fill="#fdfdfd" fill-rule="nonzero" group-id="6,71" node-id="491" stroke="none" target-height="155.92712" target-width="102.61064" target-x="180.63829" target-y="833.0892"></path></g></svg>